<svg width="18" height="20" viewBox="0 0 18 20" fill="none" xmlns="http://www.w3.org/2000/svg">
<path d="M17.4251 6.81868C17.2969 6.90869 15.0328 8.06281 15.0328 10.6291C15.0328 13.5974 17.9138 14.6475 18 14.6735C17.9867 14.7375 17.5423 16.1116 16.481 17.5118C15.5347 18.7439 14.5464 19.974 13.0429 19.974C11.5394 19.974 11.1524 19.1839 9.41678 19.1839C7.72534 19.1839 7.12394 20 5.74868 20C4.37342 20 3.41383 18.8599 2.31053 17.4597C1.03255 15.8156 0 13.2613 0 10.8371C0 6.94869 2.79474 4.88649 5.54526 4.88649C7.00676 4.88649 8.22503 5.75458 9.14261 5.75458C10.016 5.75458 11.378 4.83448 13.0407 4.83448C13.6708 4.83448 15.9349 4.88649 17.4251 6.81868V6.81868ZM12.2513 3.18832C12.939 2.45024 13.4254 1.42614 13.4254 0.40204C13.4254 0.260026 13.4121 0.116012 13.3834 0C12.2646 0.0380038 10.9335 0.674067 10.1309 1.51615C9.5008 2.16422 8.91266 3.18832 8.91266 4.22642C8.91266 4.38244 8.94141 4.53845 8.95467 4.58846C9.02543 4.60046 9.1404 4.61446 9.25537 4.61446C10.2592 4.61446 11.5217 4.0064 12.2513 3.18832Z" fill="white"/>
</svg>
