<svg width="26" height="18" viewBox="0 0 26 18" fill="none" xmlns="http://www.w3.org/2000/svg">
<path d="M4.19604 8.81055V13.6365C4.19604 14.1875 4.41311 14.7331 4.83484 15.2422C5.25657 15.7513 5.87471 16.2139 6.65397 16.6035C7.43323 16.9931 8.35835 17.3022 9.3765 17.5131C10.3947 17.7239 11.4859 17.8325 12.5879 17.8325C13.69 17.8325 14.7812 17.7239 15.7994 17.5131C16.8175 17.3022 17.7427 16.9931 18.5219 16.6035C19.3012 16.2139 19.9193 15.7513 20.3411 15.2422C20.7628 14.7331 20.9798 14.1875 20.9798 13.6365V8.81055L12.5879 12.5875L8.392 10.6985V13.6365L7.34301 12.5875L6.29402 13.6365V9.75505L4.19604 8.81055V8.81055Z" fill="#000B21"/>
<path d="M25.1757 5.66453L12.5879 0L4.72239e-05 5.66453L12.5879 11.3291L25.1757 5.66453Z" fill="#000B21"/>
</svg>
