<svg width="36" height="36" viewBox="0 0 36 36" fill="none" xmlns="http://www.w3.org/2000/svg">
<path fill-rule="evenodd" clip-rule="evenodd" d="M18 16.125C16.3432 16.125 15 17.4681 15 19.125C15 20.7819 16.3432 22.125 18 22.125C19.6569 22.125 21 20.7819 21 19.125C21 17.4681 19.6569 16.125 18 16.125ZM13.5 19.125C13.5 16.6397 15.5148 14.625 18 14.625C20.4853 14.625 22.5 16.6397 22.5 19.125C22.5 21.6103 20.4853 23.625 18 23.625C15.5148 23.625 13.5 21.6103 13.5 19.125Z" fill="white"/>
<path fill-rule="evenodd" clip-rule="evenodd" d="M26.5562 18.1377C25.8794 17.7993 25.133 17.6237 24.3763 17.625C23.9621 17.6257 23.6257 17.2905 23.625 16.8763C23.6244 16.462 23.9596 16.1257 24.3738 16.125C25.3642 16.1234 26.3412 16.3531 27.227 16.796C28.1128 17.239 28.8829 17.8827 29.4758 18.676C29.7238 19.0078 29.6558 19.4778 29.324 19.7258C28.9923 19.9737 28.5223 19.9058 28.2743 19.574C27.8213 18.9679 27.233 18.4761 26.5562 18.1377Z" fill="white"/>
<path fill-rule="evenodd" clip-rule="evenodd" d="M11.6238 17.625C10.8671 17.6237 10.1207 17.7993 9.44389 18.1377C8.76711 18.4761 8.17878 18.9679 7.7258 19.574C7.47782 19.9058 7.00784 19.9737 6.67605 19.7258C6.34426 19.4778 6.27632 19.0078 6.52429 18.676C7.11719 17.8827 7.88725 17.239 8.77306 16.796C9.65888 16.3531 10.6359 16.1234 11.6263 16.125C12.0405 16.1257 12.3757 16.462 12.375 16.8763C12.3744 17.2905 12.038 17.6257 11.6238 17.625Z" fill="white"/>
<path fill-rule="evenodd" clip-rule="evenodd" d="M18 23.6274C17.0149 23.6274 16.0496 23.9041 15.214 24.4259C14.3784 24.9478 13.7062 25.6938 13.274 26.5791C13.0922 26.9513 12.6432 27.1057 12.271 26.9239C11.8988 26.7422 11.7444 26.2931 11.9261 25.9209C12.4816 24.7832 13.3455 23.8244 14.4194 23.1537C15.4933 22.483 16.7339 22.1274 18 22.1274C19.2661 22.1274 20.5068 22.483 21.5807 23.1537C22.6545 23.8244 23.5185 24.7832 24.074 25.9209C24.2557 26.2931 24.1013 26.7422 23.7291 26.9239C23.3569 27.1057 22.9078 26.9513 22.7261 26.5791C22.2938 25.6938 21.6216 24.9478 20.7861 24.4259C19.9505 23.9041 18.9852 23.6274 18 23.6274Z" fill="white"/>
<path fill-rule="evenodd" clip-rule="evenodd" d="M12.1808 11.6955C11.7671 11.5894 11.3318 11.6033 10.9257 11.7354C10.5196 11.8676 10.1596 12.1126 9.88753 12.4418C9.61551 12.771 9.44279 13.1708 9.38955 13.5945C9.33632 14.0182 9.40477 14.4484 9.5869 14.8346C9.76903 15.2209 10.0573 15.5473 10.4181 15.7758C10.7789 16.0043 11.1972 16.1254 11.6243 16.125C12.0385 16.1246 12.3746 16.46 12.375 16.8742C12.3755 17.2885 12.04 17.6246 11.6258 17.625C10.9141 17.6257 10.2168 17.4239 9.61551 17.043C9.01422 16.6622 8.53372 16.1181 8.23016 15.4744C7.92661 14.8306 7.81253 14.1137 7.90125 13.4075C7.98998 12.7013 8.27785 12.035 8.73122 11.4863C9.18459 10.9376 9.78475 10.5293 10.4616 10.3091C11.1384 10.0888 11.8639 10.0657 12.5533 10.2425C13.2428 10.4193 13.8677 10.7886 14.355 11.3073C14.8424 11.826 15.172 12.4727 15.3055 13.1719C15.3832 13.5787 15.1163 13.9715 14.7094 14.0492C14.3026 14.1269 13.9098 13.86 13.8321 13.4531C13.752 13.0336 13.5542 12.6456 13.2618 12.3344C12.9694 12.0232 12.5945 11.8016 12.1808 11.6955Z" fill="white"/>
<path fill-rule="evenodd" clip-rule="evenodd" d="M25.0744 11.7354C24.6683 11.6033 24.233 11.5894 23.8193 11.6955C23.4056 11.8016 23.0307 12.0232 22.7383 12.3344C22.4459 12.6456 22.2481 13.0336 22.168 13.4531C22.0903 13.86 21.6975 14.1269 21.2907 14.0492C20.8838 13.9715 20.6169 13.5787 20.6946 13.1719C20.8281 12.4727 21.1577 11.826 21.6451 11.3073C22.1324 10.7886 22.7573 10.4193 23.4468 10.2425C24.1362 10.0657 24.8617 10.0888 25.5385 10.3091C26.2153 10.5293 26.8155 10.9376 27.2689 11.4863C27.7222 12.035 28.0101 12.7013 28.0988 13.4075C28.1876 14.1137 28.0735 14.8306 27.7699 15.4744C27.4664 16.1181 26.9859 16.6622 26.3846 17.043C25.7833 17.4239 25.086 17.6257 24.3743 17.625C23.9601 17.6246 23.6246 17.2885 23.625 16.8742C23.6255 16.46 23.9616 16.1246 24.3758 16.125C24.8029 16.1254 25.2212 16.0043 25.582 15.7758C25.9428 15.5473 26.2311 15.2209 26.4132 14.8346C26.5953 14.4484 26.6638 14.0182 26.6105 13.5945C26.5573 13.1708 26.3846 12.771 26.1126 12.4418C25.8405 12.1126 25.4804 11.8676 25.0744 11.7354Z" fill="white"/>
</svg>
