<svg width="18" height="17" viewBox="0 0 18 17" fill="none" xmlns="http://www.w3.org/2000/svg">
<path d="M3.975 16.425H0.525V5.325H3.975V16.425ZM2.1 3.9C0.824999 3.9 0 3.075 0 1.95C0 0.825 0.824999 0 2.1 0C3.375 0 4.2 0.825 4.2 1.95C4.2 3.075 3.45 3.9 2.1 3.9ZM17.85 16.425H13.875V10.65C13.875 9.15 13.275 8.1 11.925 8.1C10.875 8.1 10.35 8.775 10.05 9.45C9.975 9.675 9.975 10.05 9.975 10.35V16.35H6.075C6.075 16.35 6.15 6.15 6.075 5.25H9.975V6.975C10.2 6.225 11.475 5.1 13.425 5.1C15.9 5.1 17.85 6.675 17.85 10.125V16.425V16.425Z" fill="white"/>
</svg>
