<svg width="315" height="274" viewBox="0 0 315 274" fill="none" xmlns="http://www.w3.org/2000/svg">
<path d="M131.032 237.92L134.47 226.688C130.329 222.121 125.142 218.635 119.355 216.531C125.008 225.923 119.532 238.179 121.815 248.911C123.31 255.68 127.792 261.4 134 264.455L139.222 270.939C144.763 261.236 145.785 249.589 142.023 239.061C140.95 236.153 139.52 233.393 137.762 230.844C134.651 234.503 131.032 237.92 131.032 237.92Z" fill="#F2F2F2"/>
<path d="M112.112 239.354L110.195 227.759C104.46 225.521 98.2641 224.722 92.15 225.43C101.388 231.31 101.935 244.728 108.751 253.308C113.099 258.7 119.657 261.81 126.568 261.771L134.125 265.24C134.767 254.077 130.502 243.195 122.453 235.457C120.2 233.336 117.692 231.504 114.982 230.01C113.836 234.675 112.112 239.354 112.112 239.354Z" fill="#F2F2F2"/>
<path d="M224.716 268.053H219.416L216.895 247.559H224.716V268.053Z" fill="#FFB6B6"/>
<path d="M226.064 273.203H208.976V272.987C208.976 269.306 211.953 266.317 215.629 266.317L218.748 263.94L224.573 266.317H226.064V273.203Z" fill="#2F2E41"/>
<path d="M310.321 248.673L306.706 252.561L290.035 240.434L295.365 234.697L310.321 248.673Z" fill="#FFB6B6"/>
<path d="M315 251.191L303.349 263.724L303.19 263.577C300.501 261.067 300.355 256.846 302.858 254.15L303.254 250.241L308.959 247.588L309.976 246.495L315 251.191Z" fill="#2F2E41"/>
<path d="M302.479 237.155L296.878 248.902L262.481 226.065L257.479 219.231L241.071 196.818L234.402 207.428L229.761 218.518C226.698 220.523 224.694 223.797 224.302 227.439L224.091 229.405L227.025 255.835L215.878 259.266L209.476 223.758L211.57 216.064L213.724 205.264L224.569 171.135H253.592L270.241 206.664L271.456 213.904L276.179 219.334L302.479 237.155Z" fill="#2F2E41"/>
<path d="M242.157 115.302L247.043 119.034L252.938 120.849C252.938 120.849 255.372 155.207 257.569 157.406C259.767 159.605 257.785 159.665 258.224 162.525C258.664 165.385 259.737 171.243 259.737 171.243C244.919 179.106 232.148 179.318 221.889 170.116C221.618 168.945 222.199 167.74 223.285 167.225C225.194 166.21 221.523 161.467 223.087 160.676C224.651 159.886 222.454 153.004 222.454 153.004L223.893 138.652L222.755 136.358L225.53 122.322L230.347 120.559L232.273 115.911L242.157 115.302Z" fill="#3F3D56"/>
<path d="M245.221 176.367C245.139 174.021 246.966 172.055 249.305 171.973C249.555 171.965 249.805 171.978 250.051 172.012L256.936 158.594L260.771 165.428L253.644 177.123C253.162 179.43 250.9 180.907 248.599 180.423C246.673 180.013 245.277 178.337 245.221 176.367Z" fill="#FFB6B6"/>
<path d="M256.815 173.083L271.586 150.13L271.538 150.027C271.482 149.906 268.139 142.665 264.899 136.03C264.399 135.01 263.903 133.999 263.421 133.036C263.214 132.621 263.007 132.211 262.805 131.813C261.443 129.122 260.254 126.897 259.543 125.843C257.974 123.454 255.635 121.678 252.916 120.805L252.847 120.788L252.782 120.814C250.046 121.972 248.474 124.879 249.008 127.813C250.288 134.677 253.144 141.149 257.345 146.718L259.741 149.88L251.421 168.02L256.815 173.083Z" fill="#3F3D56"/>
<path d="M206.029 85.1038C207.567 86.8708 207.382 89.5536 205.615 91.0958C205.426 91.26 205.223 91.4069 205.012 91.5365L208.093 106.311L200.82 103.426L199.01 89.8387C197.937 87.7391 198.764 85.1686 200.854 84.0929C202.608 83.1857 204.745 83.609 206.029 85.1038Z" fill="#FFB6B6"/>
<path d="M199.079 94.9756L202.022 122.132L202.125 122.184C202.211 122.227 205.938 124.059 210.51 126.24C211.281 126.608 211.169 128.202 211.979 128.586C212.535 128.85 214 127.895 214.564 128.159C219.562 130.504 224.617 132.781 226.633 133.399C229.352 134.263 232.286 134.168 234.944 133.131L235.009 133.101L235.044 133.04C236.444 130.414 235.836 127.161 233.583 125.221C228.279 120.698 221.997 117.475 215.232 115.803L211.385 114.857L206.455 95.5113L199.079 94.9756Z" fill="#3F3D56"/>
<path d="M236.948 113.759C242.286 113.759 246.612 109.421 246.612 104.069C246.612 98.7173 242.286 94.3789 236.948 94.3789C231.611 94.3789 227.284 98.7173 227.284 104.069C227.284 109.421 231.611 113.759 236.948 113.759Z" fill="#FFB6B6"/>
<path d="M227.353 97.5765C228.145 95.2566 232.105 93.6495 238.516 93.4248C244.928 93.2002 246.556 100.782 246.556 100.782C250.839 104.264 241.985 113.587 241.554 113.254L241.748 111.5C242.067 108.597 243.424 106.333 241.7 103.309L240.046 103.327C237.909 103.737 235.772 104.152 233.635 104.562L236.164 102.329L236.091 102.216C235.013 102.778 233.841 103.136 232.635 103.266C231.273 103.348 229.787 102.804 229.136 101.603C228.964 101.275 228.856 100.912 228.822 100.54C226.986 101.275 226.15 103.543 226.15 103.543C226.15 103.543 226.56 99.8964 227.353 97.5765Z" fill="#2F2E41"/>
<path d="M38.9377 98.1591C38.8084 97.9906 38.6662 97.835 38.5154 97.6838C38.5542 97.632 38.5887 97.5758 38.6275 97.5283L38.9377 98.1591Z" fill="#2F2E41"/>
<path d="M40.8206 137.135C39.2393 139.952 36.081 141.52 32.9529 142.294C29.437 143.218 25.7358 143.145 22.2587 142.086C21.8192 141.944 21.3754 141.78 20.9489 141.594C21.1557 141.045 21.3151 140.484 21.4358 139.913C21.5952 139.14 21.677 138.349 21.6727 137.559C21.3237 138.241 20.8713 138.864 20.337 139.408C19.9234 139.844 19.4495 140.224 18.9367 140.535C17.3382 139.563 15.9551 138.276 14.8693 136.747C14.9382 136.578 15.0072 136.405 15.0718 136.237C15.4036 135.347 15.6707 134.431 15.8603 133.498C16.1231 132.236 16.2524 130.953 16.2524 129.67C15.6837 130.781 14.9512 131.791 14.0722 132.673C13.8094 132.954 13.5293 133.221 13.2363 133.472C12.3143 130.668 12.5555 127.614 13.8999 124.987C15.7181 121.613 19.2513 119.609 22.3923 117.431C25.5419 115.25 28.6873 112.303 28.9544 108.471C29.1354 105.888 27.9376 103.296 28.4158 100.751C29.0234 97.5155 32.1299 95.3814 35.3615 95.9905C36.5636 96.2152 37.6666 96.807 38.5197 97.684C36.7359 100.22 34.9608 102.842 34.2412 105.853C33.5044 108.921 34.1076 112.519 36.5205 114.554C37.3478 115.254 38.3646 115.751 39.0023 116.628C39.8511 117.79 39.8554 119.337 39.9933 120.766C40.2691 123.544 41.1739 126.218 41.6608 128.97C42.152 131.714 42.1778 134.695 40.8206 137.135Z" fill="#2F2E41"/>
<path d="M8.41058 251.403L12.6029 254.652L27.1017 239.98L20.9101 235.181L8.41058 251.403Z" fill="#A0616A"/>
<path d="M8.58723 248.228L15.5242 252.967L13.3311 255.814L16.2696 265.063C16.6445 266.247 15.9939 267.513 14.8133 267.888C14.111 268.113 13.344 267.979 12.7624 267.526L4.86882 261.413L5.67886 257.542L2.97731 259.948L0 257.641L8.58723 248.228Z" fill="#2F2E41"/>
<path d="M29.6912 106.346C29.6912 111.888 34.168 116.386 39.7003 116.386C45.2284 116.386 49.7137 111.897 49.7137 106.35C49.7137 103.749 48.7098 101.252 46.9088 99.3815L46.8614 99.334C46.7795 99.2476 46.7019 99.1655 46.6158 99.0834C46.6115 99.0834 46.6115 99.0834 46.6115 99.0791C46.5081 98.984 46.4046 98.8847 46.2969 98.794C44.5347 97.243 42.0572 95.5625 39.5323 95.5625C33.9999 95.5625 29.6912 100.798 29.6912 106.346Z" fill="#2F2E41"/>
<path d="M86.7556 101.192C86.9365 103.213 85.45 105.002 83.4292 105.183C83.2138 105.201 82.9984 105.205 82.7829 105.183L57.9907 127.627L53.7251 120.87L79.4351 100.932C79.7453 98.9149 81.6282 97.5325 83.6404 97.8435C85.3294 98.1027 86.6134 99.4895 86.7556 101.192Z" fill="#A0616A"/>
<path d="M47.3956 134.401C47.3956 134.401 48.3177 136.107 51.4674 133.472C53.9879 131.36 66.0738 122.192 68.6806 118.438C69.9043 118.922 71.3003 118.516 72.0715 117.449L64.9363 111.185C62.8035 111.431 62.8466 112.869 63.0707 113.686L57.6891 116.131L43.7936 125.035L46.7063 133.178L47.3956 134.401Z" fill="#0353EF"/>
<path d="M33.9353 150.139L33.4139 152.619L32.9744 161.769L52.398 162.84L51.7948 148.765L49.9119 145.663L33.9353 150.139Z" fill="#A0616A"/>
<path d="M42.1692 117.086C46.8047 117.086 50.5625 113.318 50.5625 108.671C50.5625 104.023 46.8047 100.255 42.1692 100.255C37.5337 100.255 33.7759 104.023 33.7759 108.671C33.7759 113.318 37.5337 117.086 42.1692 117.086Z" fill="#A0616A"/>
<path d="M27.2654 139.715L27.2137 132.716C27.2094 127.532 30.777 123.031 35.8138 121.864L35.844 121.855L37.5028 119.613L44.2459 120.292L45.4825 122.823L50.3686 125.739L52.2515 131.805C53.9017 132.906 55.022 134.647 55.3408 136.609C55.9785 140.7 53.1219 144.795 52.7815 145.262L51.9068 150.208L32.8581 153.578L32.703 153.6L27.2654 139.715Z" fill="#0353EF"/>
<path d="M52.4411 107.167C51.463 107.789 50.4462 108.351 49.3992 108.848C48.3349 109.357 47.2233 109.764 46.0815 110.049C45.754 109.327 45.3533 108.645 44.888 108.005C45.0086 108.761 45.0129 109.53 44.8966 110.286C43.0008 110.593 41.0575 110.433 39.2393 109.82L37.658 107.163L37.5373 110.131C36.2275 110.368 34.922 110.597 33.6121 110.831C33.5346 110.839 33.457 110.857 33.3838 110.874C32.5694 107.197 33.7241 103.145 36.2878 100.696C38.886 98.2374 42.6647 97.503 45.9953 98.8077C46.2021 98.8898 46.4132 98.9848 46.6157 99.0799C46.6157 99.0842 46.6157 99.0842 46.6201 99.0842C46.7407 99.1447 46.8398 99.2872 46.9734 99.2743C52.7082 98.6349 52.8935 103.093 52.4411 107.167Z" fill="#2F2E41"/>
<path d="M38.4766 240.551L42.6776 243.791L57.1419 229.085L50.9417 224.303L38.4766 240.551Z" fill="#A0616A"/>
<path d="M39.0282 237.669L45.9738 242.395L43.785 245.246L46.745 254.487C47.1242 255.671 46.4736 256.937 45.2973 257.317C44.595 257.542 43.828 257.408 43.2464 256.958L35.3399 250.858L36.1413 246.983L33.4441 249.394L30.4625 247.095L39.0282 237.669Z" fill="#2F2E41"/>
<path d="M24.8439 222.605V222.548L26.8345 219.11L24.8008 214.63L24.7405 203.125L25.068 201.397C25.5118 199.073 25.3825 196.679 24.6931 194.416L24.6543 187.413C24.5811 185.659 27.2913 184.117 26.6622 182.652C20.686 168.828 32.7633 158.282 32.8452 158.196L33.0908 157.937L34.4308 158.952H35.7061L52.9021 162.092L53.0271 162.326C53.7036 163.596 55.0091 167.981 55.0866 169.968C55.9441 170.962 65.7076 182.289 66.5736 183.075C72.4378 188.398 75.7942 197.202 77.2764 201.976C78.0218 204.374 77.5393 206.983 75.9795 208.949L53.7768 233.332L47.8006 227.802L59.8133 205.851L58.9472 203.626C57.3918 203.337 55.9872 202.52 54.966 201.306L52.5316 198.412C51.8594 197.613 51.4286 196.636 51.2993 195.595L49.8257 195.418L44.5433 189.854L40.8766 223.14L39.8813 225.771L22.5258 246.231L15.1709 241.622L24.8439 222.605Z" fill="#2F2E41"/>
<path d="M22.1941 79.6735C20.9359 81.2633 21.1988 83.5746 22.7844 84.8404C22.9524 84.9743 23.1334 85.0952 23.323 85.1989L17.8035 101.581L22.3104 118.943L29.5792 115.652L25.0938 102.557L28.4503 83.4968C29.2948 81.6391 28.4805 79.4445 26.6277 78.5978C25.0766 77.8806 23.2454 78.3256 22.1941 79.6735Z" fill="#A0616A"/>
<path d="M28.8467 133.243C28.8467 133.243 27.1404 134.163 25.9512 130.223C24.999 127.07 18.5317 109.945 18.4153 105.37C17.127 105.102 16.1834 103.991 16.1231 102.674L25.5161 101.369C27.1663 102.752 26.339 103.927 25.7056 104.488L28.9027 109.923L35.5898 124.59L30.0876 132.599L28.8467 133.243Z" fill="#0353EF"/>
<path d="M33.6121 110.834C35.5769 104.894 40.6181 100.501 46.7579 99.3773C46.7709 99.373 46.8096 99.3557 46.8614 99.3341C46.8915 99.3125 46.9346 99.2952 46.9734 99.2736C46.8527 99.2045 46.7364 99.144 46.6158 99.0835C46.6115 99.0835 46.6114 99.0835 46.6114 99.0792C46.508 98.9841 46.4046 98.8848 46.2969 98.7941L45.991 98.807C45.9953 98.807 35.2968 97.1092 33.6121 110.834Z" fill="#FD6584"/>
<path d="M171.637 204.626C172.805 202.866 172.115 200.348 170.096 199.001C168.077 197.654 165.494 197.99 164.326 199.75C163.158 201.51 163.848 204.028 165.867 205.375C167.886 206.722 170.469 206.386 171.637 204.626Z" fill="#F2F2F2"/>
<path d="M147.938 138.961C149.106 137.201 148.416 134.683 146.397 133.336C144.378 131.989 141.795 132.325 140.627 134.085C139.459 135.845 140.149 138.363 142.168 139.71C144.187 141.057 146.77 140.721 147.938 138.961Z" fill="#F2F2F2"/>
<path d="M247.039 240.048C248.207 238.288 247.517 235.77 245.498 234.423C243.479 233.076 240.896 233.411 239.728 235.172C238.56 236.932 239.25 239.45 241.269 240.797C243.288 242.143 245.871 241.808 247.039 240.048Z" fill="#F2F2F2"/>
<path d="M46.6823 28.8022C47.8501 27.0421 47.1601 24.5236 45.1412 23.1769C43.1223 21.8302 40.5389 22.1653 39.3711 23.9254C38.2033 25.6855 38.8933 28.204 40.9122 29.5507C42.9311 30.8974 45.5144 30.5623 46.6823 28.8022Z" fill="#F2F2F2"/>
<path d="M140.179 8.06391C141.347 6.30384 140.657 3.78531 138.638 2.43863C136.619 1.09194 134.036 1.42707 132.868 3.18714C131.7 4.94721 132.39 7.46573 134.409 8.81241C136.428 10.1591 139.011 9.82398 140.179 8.06391Z" fill="#F2F2F2"/>
<path d="M95.9323 182.039C97.1001 180.279 96.4101 177.761 94.3912 176.414C92.3723 175.068 89.7889 175.403 88.6211 177.163C87.4533 178.923 88.1433 181.441 90.1622 182.788C92.1811 184.135 94.7645 183.8 95.9323 182.039Z" fill="#E6E6E6"/>
<path d="M288.799 273.617H8.60443C8.32006 273.617 8.0917 273.384 8.09601 273.099C8.09601 272.818 8.32437 272.589 8.60443 272.589H288.794C289.079 272.589 289.307 272.822 289.307 273.103C289.307 273.388 289.079 273.617 288.799 273.617Z" fill="#CCCCCC"/>
<path d="M60.7569 102.777C55.8751 102.764 51.7862 99.0749 51.2605 94.2104L45.7885 43.2717C45.2283 38.0055 49.0243 33.2792 54.2766 32.7046L216.693 15.1692C221.945 14.6076 226.659 18.4136 227.232 23.6799L232.704 74.6186C233.264 79.8848 229.468 84.6111 224.216 85.1856L224.194 84.9696L224.216 85.1856L61.7996 102.721C61.4506 102.76 61.1016 102.777 60.7569 102.777Z" fill="#E6E6E6"/>
<path d="M214.905 17.5371C214.599 17.5371 214.293 17.5544 213.991 17.5846L57.4306 34.4893C52.8246 34.9861 49.4983 39.1335 49.9938 43.7474L52.76 69.4997C54.6386 87.0092 70.3222 99.6758 87.7853 97.7923L197.872 85.9076C215.284 84.0283 227.878 68.3549 226.004 50.8972L223.229 25.0455C222.768 20.7815 219.183 17.5457 214.905 17.5371Z" fill="white"/>
<path d="M181.935 44.3435L94.4293 53.7916C93.378 53.9082 92.4344 53.1436 92.3181 52.0894C92.2017 51.0353 92.9644 50.0892 94.0157 49.9726H94.02L181.525 40.5245C182.577 40.4078 183.52 41.1725 183.637 42.2266C183.753 43.2807 182.99 44.2268 181.939 44.3435C181.939 44.3391 181.939 44.3435 181.935 44.3435Z" fill="#0353EF"/>
<path d="M183.193 56.06L95.6875 65.5082C94.6362 65.6205 93.6926 64.8601 93.5806 63.806C93.4685 62.7519 94.2269 61.8058 95.2782 61.6935L182.783 52.2453C183.835 52.133 184.778 52.8977 184.89 53.9518C185.002 55.0016 184.244 55.9434 183.193 56.06Z" fill="#0353EF"/>
<path d="M107.144 76.1226L96.9456 77.2242C95.8943 77.3365 94.9507 76.5762 94.8387 75.5221C94.7266 74.468 95.485 73.5218 96.5363 73.4095L106.735 72.3079C107.786 72.1956 108.73 72.9559 108.842 74.01C108.958 75.0641 108.196 76.0102 107.144 76.1226Z" fill="#0353EF"/>
<path d="M57.3143 45.423C59.218 45.423 60.7612 43.8756 60.7612 41.9668C60.7612 40.0581 59.218 38.5107 57.3143 38.5107C55.4106 38.5107 53.8673 40.0581 53.8673 41.9668C53.8673 43.8756 55.4106 45.423 57.3143 45.423Z" fill="#3F3D56"/>
<path d="M211.565 28.1427C213.469 28.1427 215.012 26.5953 215.012 24.6866C215.012 22.7778 213.469 21.2305 211.565 21.2305C209.662 21.2305 208.118 22.7778 208.118 24.6866C208.118 26.5953 209.662 28.1427 211.565 28.1427Z" fill="#3F3D56"/>
<path d="M164.963 99.0963C164.321 98.5304 163.967 97.7052 163.997 96.8499C164.17 91.8299 163.347 86.8271 161.572 82.1268C161.266 81.3276 161.339 80.4333 161.766 79.6903C162.175 78.9775 162.877 78.485 163.683 78.3381C167.69 75.9145 171.796 75.2319 175.894 76.3163C177.26 76.1132 178.565 76.9383 178.979 78.256C180.638 83.6562 181.56 89.2551 181.719 94.9015C181.749 96.3012 180.75 97.5108 179.371 97.7441L167.251 99.753C166.432 99.8869 165.587 99.645 164.963 99.0963Z" fill="#0353EF"/>
<path d="M166.04 84.4683L176.243 82.7792C176.596 82.723 176.833 82.3903 176.777 82.0361C176.721 81.6818 176.389 81.4442 176.036 81.5004C176.036 81.5004 176.036 81.5004 176.032 81.5004L165.829 83.1896C165.475 83.2501 165.238 83.5827 165.299 83.937C165.359 84.2869 165.687 84.5245 166.04 84.4683Z" fill="white"/>
<path d="M166.884 89.5837L177.087 87.8945C177.441 87.834 177.678 87.5014 177.617 87.1471C177.557 86.7972 177.225 86.5552 176.876 86.6157L166.673 88.3049C166.32 88.3611 166.083 88.6937 166.139 89.048C166.195 89.4022 166.527 89.6398 166.884 89.5837C166.88 89.5837 166.88 89.5837 166.884 89.5837Z" fill="white"/>
<path d="M167.725 94.6989L177.928 93.0097C178.281 92.9492 178.518 92.6166 178.457 92.2623C178.397 91.9124 178.065 91.6705 177.716 91.731L167.513 93.4201C167.16 93.4763 166.923 93.8089 166.979 94.1632C167.035 94.5175 167.371 94.7551 167.725 94.6989Z" fill="white"/>
</svg>
