<svg width="375" height="281" viewBox="0 0 375 281" fill="none" xmlns="http://www.w3.org/2000/svg">
<path d="M391 281C370.852 278.052 351.478 275.51 332.874 273.377L340.23 261.485C337.751 260.754 326.855 267.531 326.855 267.531L336.513 232.959C324.039 234.16 317.692 269.475 317.692 269.475L303.76 257.459L310.506 270.924C253.567 265.051 204.39 262.748 163.027 262.481L169.324 252.304C166.845 251.574 155.949 258.351 155.949 258.351L165.607 223.779C153.133 224.98 146.786 260.295 146.786 260.295L132.854 248.278L139.998 262.543C105.322 262.964 77.0443 264.811 55.2178 266.967C61.5882 251.095 83.2174 236.073 83.2174 236.073C66.6977 240.107 58.0337 246.949 53.5044 253.348C53.1601 233.712 55.4886 197.324 72.7896 157.106C72.7896 157.106 38.6362 219.084 42.9876 260.812L43.5059 268.219C14.551 271.557 0 275.096 0 275.096L391 281Z" fill="#3F3D56"/>
<path d="M207.91 11.255V261.701C207.902 267.914 202.862 272.944 196.643 272.948H94.8597C88.6479 272.96 83.6042 267.937 83.5926 261.732C83.5926 261.72 83.5926 261.712 83.5926 261.701V11.255C83.5926 5.03828 88.6324 0 94.8559 0C94.8559 0 94.8559 0 94.8597 0H110.091V1.95117C110.091 7.07059 114.242 11.2202 119.367 11.2202H171.134C173.115 11.2241 175.045 10.5904 176.634 9.412C176.955 9.18018 177.261 8.92131 177.547 8.64699C179.377 6.90059 180.413 4.4819 180.409 1.95117V0H196.643C202.862 0 207.91 5.03442 207.91 11.2473C207.91 11.2511 207.91 11.2511 207.91 11.255Z" fill="#3F3D56"/>
<path d="M177.547 8.64746C177.261 8.92178 176.955 9.18065 176.634 9.41248C183.337 21.1968 194.686 29.6351 207.91 32.6682V31.4627C195.042 28.4297 184.03 20.1575 177.547 8.64746Z" fill="#0353EF"/>
<path d="M154.413 11.2207H153.145C162.312 34.4841 183.171 51.1212 207.91 54.9V53.7022C183.821 49.966 163.487 33.8195 154.413 11.2207Z" fill="#0353EF"/>
<path d="M103.052 61.7501H102.344V61.0469H102.209V61.7501H101.505V61.8892H102.209V62.5924H102.344V61.8892H103.052V61.7501Z" fill="#F2F2F2"/>
<path d="M150.627 26.5899H149.919V25.8867H149.784V26.5899H149.08V26.729H149.784V27.4322H149.919V26.729H150.627V26.5899Z" fill="#F2F2F2"/>
<path d="M110.014 89.5684H109.306V88.8652H109.171V89.5684H108.467V89.7075H109.171V90.4107H109.306V89.7075H110.014V89.5684Z" fill="#F2F2F2"/>
<path d="M142.504 69.0909H141.796V68.3877H141.661V69.0909H140.957V69.23H141.661V69.9332H141.796V69.23H142.504V69.0909Z" fill="#F2F2F2"/>
<path d="M188.919 81.8409H188.211V81.1377H188.076V81.8409H187.372V81.98H188.076V82.6832H188.211V81.98H188.919V81.8409Z" fill="#F2F2F2"/>
<path d="M180.796 49.8419C181.651 49.8419 182.343 49.15 182.343 48.2965C182.343 47.4429 181.651 46.751 180.796 46.751C179.942 46.751 179.249 47.4429 179.249 48.2965C179.249 49.15 179.942 49.8419 180.796 49.8419Z" fill="#FF6584"/>
<path d="M125.37 84.5381L124.492 84.6733C124.766 86.4274 124.983 88.2202 125.141 89.9936L126.027 89.9164C125.869 88.1197 125.648 86.3115 125.37 84.5381Z" fill="#E6E6E6"/>
<path d="M99.9344 37.8916L99.3426 38.5523C100.673 39.7385 101.977 40.9864 103.218 42.2576L103.856 41.6355C102.599 40.3489 101.28 39.0893 99.9344 37.8916Z" fill="#E6E6E6"/>
<path d="M91.3786 31.2383L90.8797 31.9724C92.3572 32.9654 93.8193 34.024 95.2233 35.1174L95.7725 34.4181C94.3492 33.3131 92.8716 32.2428 91.3786 31.2383Z" fill="#E6E6E6"/>
<path d="M83.5926 26.6172V27.6218C84.517 28.1047 85.4337 28.6109 86.331 29.1286L86.7759 28.3597C85.7315 27.757 84.6679 27.1774 83.5926 26.6172Z" fill="#E6E6E6"/>
<path d="M125.168 167.995C125.312 167.129 125.443 166.248 125.559 165.371L126.441 165.487C126.325 166.372 126.19 167.264 126.043 168.137L125.168 167.995Z" fill="#E6E6E6"/>
<path d="M122.689 178.419L123.54 178.681C124.074 176.966 124.557 175.204 124.975 173.454L124.109 173.249C123.691 174.984 123.219 176.723 122.689 178.419Z" fill="#E6E6E6"/>
<path d="M118.806 188.398L119.614 188.777C120.38 187.15 121.099 185.477 121.749 183.8L120.918 183.476C120.276 185.133 119.564 186.791 118.806 188.398Z" fill="#E6E6E6"/>
<path d="M113.576 197.764L114.323 198.247C115.305 196.74 116.249 195.179 117.127 193.607L116.35 193.174C115.487 194.727 114.551 196.269 113.576 197.764Z" fill="#E6E6E6"/>
<path d="M107.113 206.318L107.786 206.902C108.97 205.538 110.119 204.12 111.205 202.687L110.494 202.153C109.418 203.571 108.285 204.97 107.113 206.318Z" fill="#E6E6E6"/>
<path d="M99.5399 213.907L100.124 214.575C101.485 213.389 102.812 212.141 104.085 210.87L103.454 210.24C102.201 211.496 100.882 212.732 99.5399 213.907Z" fill="#E6E6E6"/>
<path d="M91.0112 220.394L91.5024 221.135C93.0031 220.146 94.4961 219.088 95.9273 218.002L95.3896 217.291C93.9701 218.373 92.5003 219.416 91.0112 220.394Z" fill="#E6E6E6"/>
<path d="M86.8764 223.96C85.8011 224.567 84.7027 225.154 83.5926 225.711V224.714C84.5518 224.227 85.5033 223.713 86.4355 223.191L86.8764 223.96Z" fill="#E6E6E6"/>
<path d="M125.428 95.4764L126.317 95.4609C126.333 96.3573 126.337 97.2576 126.321 98.1423L125.431 98.1269C125.447 97.2537 125.443 96.3612 125.428 95.4764Z" fill="#E6E6E6"/>
<path d="M87.4991 116.541H178.476C192.574 116.541 204.004 127.958 204.004 142.042V145.418H113.027C98.9287 145.418 87.4991 134.001 87.4991 119.918V116.541Z" fill="white"/>
<path d="M147.877 272.593C147.788 272.446 145.695 268.957 144.968 261.709C144.303 255.059 144.732 243.847 150.549 228.21C161.577 198.587 148.008 174.686 147.869 174.447L148.538 174.061C148.573 174.122 152.073 180.215 154.143 189.917C156.873 202.783 155.879 216.16 151.273 228.481C140.265 258.054 148.449 272.052 148.534 272.191L147.877 272.593Z" fill="#F2F2F2"/>
<path d="M143.564 172.708C146.341 172.708 148.592 170.459 148.592 167.685C148.592 164.911 146.341 162.662 143.564 162.662C140.787 162.662 138.536 164.911 138.536 167.685C138.536 170.459 140.787 172.708 143.564 172.708Z" fill="#0353EF"/>
<path d="M159.422 191.254C162.199 191.254 164.451 189.005 164.451 186.231C164.451 183.457 162.199 181.208 159.422 181.208C156.645 181.208 154.394 183.457 154.394 186.231C154.394 189.005 156.645 191.254 159.422 191.254Z" fill="#F2F2F2"/>
<path d="M148.592 203.618C151.369 203.618 153.621 201.369 153.621 198.595C153.621 195.821 151.369 193.572 148.592 193.572C145.815 193.572 143.564 195.821 143.564 198.595C143.564 201.369 145.815 203.618 148.592 203.618Z" fill="#0353EF"/>
<path d="M161.743 214.05C164.52 214.05 166.771 211.801 166.771 209.027C166.771 206.253 164.52 204.004 161.743 204.004C158.966 204.004 156.715 206.253 156.715 209.027C156.715 211.801 158.966 214.05 161.743 214.05Z" fill="#0353EF"/>
<path d="M144.724 230.277C147.501 230.277 149.753 228.028 149.753 225.254C149.753 222.48 147.501 220.231 144.724 220.231C141.947 220.231 139.696 222.48 139.696 225.254C139.696 228.028 141.947 230.277 144.724 230.277Z" fill="#F2F2F2"/>
<path d="M150.913 272.778C150.913 272.778 145.885 260.415 160.97 251.142L150.913 272.778Z" fill="#F2F2F2"/>
<path d="M144.728 272.553C144.728 272.553 142.438 259.405 124.727 259.517L144.728 272.553Z" fill="#F2F2F2"/>
<path opacity="0.2" d="M124.712 161.89C141.801 161.89 155.655 148.051 155.655 130.98C155.655 113.909 141.801 100.07 124.712 100.07C107.623 100.07 93.769 113.909 93.769 130.98C93.769 148.051 107.623 161.89 124.712 161.89Z" fill="#0353EF"/>
<path opacity="0.2" d="M124.712 152.748C136.747 152.748 146.504 143.002 146.504 130.98C146.504 118.958 136.747 109.212 124.712 109.212C112.677 109.212 102.92 118.958 102.92 130.98C102.92 143.002 112.677 152.748 124.712 152.748Z" fill="#0353EF"/>
<path d="M124.712 145.345C132.654 145.345 139.093 138.913 139.093 130.98C139.093 123.046 132.654 116.614 124.712 116.614C116.77 116.614 110.331 123.046 110.331 130.98C110.331 138.913 116.77 145.345 124.712 145.345Z" fill="#0353EF"/>
<path d="M127.327 127.881C127.327 126.44 126.159 125.27 124.712 125.27C123.269 125.27 122.097 126.436 122.097 127.881C122.097 128.666 122.449 129.411 123.06 129.906L122.097 136.64H127.327L126.364 129.906C126.971 129.411 127.327 128.666 127.327 127.881Z" fill="white"/>
<path d="M269.247 20.5938C269.247 20.5938 260.622 12.8703 249.022 27.4287C237.422 41.9872 219.278 49.1196 215.112 54.7645C215.112 54.7645 232.363 47.6321 238.312 44.6609C244.26 41.6897 243.963 42.2847 243.963 42.2847C243.963 42.2847 235.933 47.9296 234.444 53.5745C232.955 59.2194 234.146 63.9756 231.469 69.6205C228.793 75.2654 282.63 73.4842 282.63 73.4842C282.63 73.4842 287.983 64.2731 286.498 54.7645C285.012 45.2559 285.902 21.7839 269.247 20.5938Z" fill="#2F2E41"/>
<path d="M252.928 44.8965C252.928 44.8965 254.804 58.0138 246.767 60.9579C238.729 63.9021 241.677 67.9165 241.677 67.9165L253.733 73.8048L266.594 69.7904L270.883 63.365C270.883 63.365 263.917 61.7577 265.793 56.9397C267.669 52.1216 268.206 50.5143 268.206 50.5143L252.928 44.8965Z" fill="#FFB9B9"/>
<path opacity="0.1" d="M252.928 44.8965C252.928 44.8965 254.804 58.0138 246.767 60.9579C238.729 63.9021 241.677 67.9165 241.677 67.9165L253.733 73.8048L266.594 69.7904L270.883 63.365C270.883 63.365 263.917 61.7577 265.793 56.9397C267.669 52.1216 268.206 50.5143 268.206 50.5143L252.928 44.8965Z" fill="black"/>
<path d="M286.695 82.3701C286.695 82.3701 284.819 106.997 285.357 108.068C285.894 109.138 285.357 146.345 285.357 146.345C285.357 146.345 289.108 166.421 284.285 167.492C279.462 168.562 280.533 145.009 280.533 145.009L275.71 113.96L276.248 83.1776L286.695 82.3701Z" fill="#FFB9B9"/>
<path opacity="0.1" d="M286.695 82.3701C286.695 82.3701 284.819 106.997 285.357 108.068C285.894 109.138 285.357 146.345 285.357 146.345C285.357 146.345 289.108 166.421 284.285 167.492C279.462 168.562 280.533 145.009 280.533 145.009L275.71 113.96L276.248 83.1776L286.695 82.3701Z" fill="black"/>
<path d="M234.44 156.519C234.44 156.519 225.598 189.978 225.865 206.306C226.132 222.634 229.617 245.388 229.617 245.388C229.617 245.388 230.154 255.29 229.35 256.361C228.545 257.431 233.368 261.982 233.368 261.982L238.459 259.038L240.334 256.898V255.024C240.334 255.024 237.387 245.925 239.797 238.696C242.21 231.467 243.549 213.265 241.135 207.647L257.748 158.396L234.44 156.519Z" fill="#FFB9B9"/>
<path d="M233.906 257.698C233.906 257.698 230.692 253.684 228.545 255.021C226.402 256.358 222.917 265.46 222.917 265.46C222.917 265.46 210.857 276.97 219.432 277.508C228.008 278.045 231.759 275.097 232.831 272.956C233.902 270.816 243.816 265.194 243.816 265.194C243.816 265.194 242.744 255.021 241.135 254.754C239.526 254.488 237.116 258.769 237.116 258.769L233.906 257.698Z" fill="#2F2E41"/>
<path d="M263.65 158.66V191.853C263.681 195.879 263.948 199.901 264.455 203.9C265.259 209.788 259.898 253.688 259.898 253.688L260.436 261.45L267.135 260.913L267.94 254.221L277.586 224.775C277.586 224.775 280.8 206.84 279.195 200.148C277.59 193.456 287.503 150.627 287.503 150.627L263.65 158.66Z" fill="#FFB9B9"/>
<path d="M258.289 259.572L260.273 259.139C260.273 259.139 261.774 255.824 263.646 256.624C264.965 257.23 266.218 257.98 267.375 258.857L268.199 260.371C268.199 260.371 270.075 264.386 272.484 267.063C274.894 269.741 277.575 275.629 273.556 276.162C269.537 276.696 264.176 276.966 262.571 275.625C260.966 274.285 262.033 272.144 260.428 271.611C258.819 271.074 257.481 269.47 257.748 268.933C258.022 268.404 258.289 259.572 258.289 259.572Z" fill="#2F2E41"/>
<path d="M263.65 54.115C270.227 54.115 275.559 48.7888 275.559 42.2186C275.559 35.6484 270.227 30.3223 263.65 30.3223C257.073 30.3223 251.741 35.6484 251.741 42.2186C251.741 48.7888 257.073 54.115 263.65 54.115Z" fill="#FFB9B9"/>
<path d="M241.139 63.0987L244.678 61.8662C244.678 61.8662 243.282 64.1729 250.786 65.5097C258.289 66.8465 266.06 67.3218 269.541 62.9365C269.541 62.9365 270.879 62.2989 272.755 64.1728C274.631 66.0467 275.702 65.5097 275.702 65.5097L274.364 72.4682L271.684 85.3151L268.199 94.9512L258.285 92.8107L247.567 85.0485L243.549 74.6087V64.9726L241.139 63.0987Z" fill="#0353EF"/>
<path d="M273.83 66.8457L276.511 64.9718C276.511 64.9718 285.62 66.5791 286.157 70.8601L279.191 84.244C280.611 87.9687 280.518 92.099 278.924 95.754C276.244 101.909 276.511 103.25 276.511 103.25L274.635 111.278L240.605 113.956C240.605 113.956 239.267 110.745 238.729 110.208C238.192 109.671 238.192 107.797 238.729 107.797C239.267 107.797 238.729 106.994 238.192 106.19C237.654 105.386 237.387 105.12 238.192 104.049C238.996 102.979 236.853 93.3431 236.853 93.3431V82.9033L227.741 70.8601C227.741 70.8601 230.955 66.0421 232.564 65.505C234.173 64.968 241.82 62.8584 241.82 62.8584L243.549 65.4046L245.962 84.7772L249.447 96.5538L264.114 94.0656L269.812 84.5106L273.563 73.2672L273.83 66.8457Z" fill="#0353EF"/>
<path d="M284.014 69.2568L286.157 70.8641C286.157 70.8641 288.033 85.8553 287.496 86.9256C286.958 87.9958 277.582 89.0661 277.311 88.5329C277.048 87.992 284.014 69.2568 284.014 69.2568Z" fill="#0353EF"/>
<path d="M239.801 61.7617L242.481 79.4265C242.481 79.4265 240.068 105.657 240.605 111.012L241.143 112.62C241.143 112.62 240.072 112.083 239.805 113.157C239.538 114.227 239.805 117.708 239.805 117.708C239.805 117.708 238.196 119.316 237.662 128.148C237.128 136.98 230.696 158.126 233.105 158.93C235.515 159.734 249.989 163.748 257.759 162.945C265.53 162.141 293.398 152.771 293.131 150.364C292.864 147.957 279.466 113.96 279.466 113.96C279.466 113.96 277.056 109.946 277.056 109.409C277.056 108.872 280.27 106.731 279.47 104.591C278.669 102.45 274.38 79.9636 274.38 79.9636L277.327 63.9021L273.308 62.8319L270.361 78.3563C270.361 78.3563 258.838 83.978 246.778 78.8934L244.098 60.6914L239.801 61.7617Z" fill="#2F2E41"/>
<path d="M252.692 33.6842C252.692 33.6842 272.523 47.3347 277.88 41.1799C283.237 35.025 268.5 29.6699 268.5 29.6699L256.173 28.333L252.692 33.6842Z" fill="#2F2E41"/>
<path d="M221.885 178.905C226.515 182.348 233.067 181.389 236.513 176.764C239.959 172.14 239 165.594 234.37 162.152C229.74 158.709 223.188 159.668 219.742 164.292C217.471 167.341 217.034 171.378 218.605 174.84L191.255 197.586L187.615 193.27L185.979 194.364L184.157 192.204L185.654 190.944L183.833 188.784L181.504 190.743L182.626 192.072L180.131 194.17L179.009 192.841L175.354 195.921L177.037 197.914L178.367 196.794L180.189 198.954L178.526 200.352L181.887 204.336L177.899 207.693L181.96 212.508L221.885 178.905ZM228.712 163.647C232.518 163.972 235.341 167.318 235.012 171.12C234.687 174.921 231.338 177.742 227.532 177.414C223.726 177.089 220.902 173.743 221.231 169.941C221.56 166.139 224.906 163.323 228.712 163.647Z" fill="#0353EF"/>
<path d="M225.865 85.585C225.865 85.585 227.741 110.212 227.203 111.283C226.665 112.353 227.203 149.56 227.203 149.56C227.203 149.56 223.451 169.636 228.274 170.706C233.098 171.777 232.026 148.223 232.026 148.223L236.85 117.175L236.312 86.3925L225.865 85.585Z" fill="#FFB9B9"/>
<path d="M229.884 70.0566L227.741 70.8603C227.741 70.8603 223.722 87.7254 224.793 87.7254C225.865 87.7254 238.729 89.3327 238.729 88.7956C238.729 88.2586 236.316 75.1451 236.316 75.1451L229.884 70.0566Z" fill="#0353EF"/>
</svg>
