<svg width="246" height="273" viewBox="0 0 246 273" fill="none" xmlns="http://www.w3.org/2000/svg">
<path d="M234.427 257.32C231.308 258.409 227.843 257.805 225.286 255.718C222.084 253.047 221.08 248.646 220.264 244.572L217.848 232.52L222.904 235.981C226.539 238.469 230.258 241.04 232.778 244.647C235.297 248.253 236.397 253.176 234.373 257.076" fill="#E6E6E6"/>
<path d="M233.998 271.911C234.51 268.205 235.035 264.45 234.677 260.703C234.356 257.374 233.336 254.124 231.258 251.461C230.154 250.05 228.813 248.841 227.289 247.888C226.894 247.64 226.527 248.265 226.923 248.514C229.555 250.166 231.591 252.608 232.736 255.49C234.002 258.691 234.206 262.181 233.986 265.58C233.852 267.638 233.573 269.679 233.294 271.72C233.249 271.911 233.357 272.105 233.548 272.163C233.74 272.217 233.94 272.105 233.998 271.911Z" fill="#F2F2F2"/>
<path d="M215.67 210.343H4.09955V0H215.666V210.343H215.67Z" fill="white"/>
<path d="M215.67 210.343H4.09955V0H215.666V210.343H215.67ZM7.22705 207.238H212.543V3.10942H7.22705V207.238Z" fill="#E5E5E5"/>
<path d="M178.19 32.9072H86.5725V35.7434H178.19V32.9072Z" fill="#E5E5E5"/>
<path d="M178.19 40.2861H86.5725V43.1223H178.19V40.2861Z" fill="#E5E5E5"/>
<path d="M178.19 47.6641H86.5725V50.5002H178.19V47.6641Z" fill="#E5E5E5"/>
<path d="M178.19 96.2559H86.5725V99.092H178.19V96.2559Z" fill="#E5E5E5"/>
<path d="M178.19 103.634H86.5725V106.47H178.19V103.634Z" fill="#E5E5E5"/>
<path d="M178.19 111.012H86.5725V113.848H178.19V111.012Z" fill="#E5E5E5"/>
<path d="M178.19 159.603H86.5725V162.439H178.19V159.603Z" fill="#E5E5E5"/>
<path d="M178.19 166.981H86.5725V169.818H178.19V166.981Z" fill="#E5E5E5"/>
<path d="M178.19 174.359H86.5725V177.196H178.19V174.359Z" fill="#E5E5E5"/>
<path d="M49.8919 55.5135C48.3261 54.6937 46.6936 54.0105 45.0112 53.4723L44.7947 51.1122L36.0868 50.1807L34.979 53.199L31.8557 54.3666C31.7433 54.408 31.6392 54.4618 31.5392 54.5322H31.535C31.1811 54.7682 30.9437 55.1408 30.8729 55.559C30.8396 55.766 30.8479 55.973 30.8979 56.1759L31.0645 56.8508C31.3018 56.9916 31.5475 57.1282 31.7891 57.2565L31.9432 57.3352C32.3013 57.5174 32.6636 57.6913 33.0384 57.8528C33.1134 57.8859 33.1967 57.919 33.2716 57.9521C33.2799 57.9563 33.2799 57.9563 33.2883 57.9604C33.4632 58.0308 33.6381 58.1012 33.8172 58.1674C34.4043 58.391 34.9999 58.5815 35.6079 58.7388C37.1571 59.1487 38.752 59.3557 40.3554 59.3557C40.9384 59.3557 41.5172 59.3309 42.0878 59.2729C43.3954 59.1528 44.6822 58.8961 45.9316 58.5028C45.9357 58.5028 45.9399 58.4987 45.9399 58.4987C46.7311 58.2502 47.5015 57.9438 48.2512 57.5878C48.2553 57.5836 48.2595 57.5836 48.2636 57.5795C48.4302 57.5008 48.5926 57.4139 48.7592 57.3311L48.8383 57.2897C48.9716 57.2193 49.1007 57.153 49.234 57.0785C49.563 56.8963 49.8878 56.7059 50.2084 56.503C50.2959 56.4492 50.3833 56.3954 50.4708 56.3374C50.5957 56.2546 50.7207 56.1718 50.8456 56.0807C50.5458 55.8778 50.2251 55.6915 49.8919 55.5135Z" fill="#3F3D56"/>
<path d="M33.5505 56.9723L33.005 54.5254H31.5808C31.5683 54.5254 31.5516 54.5254 31.5391 54.5295H31.535C31.0227 54.5709 30.5313 54.7407 30.1024 55.0222C29.8109 55.2085 29.5527 55.4363 29.3361 55.7054C29.7609 56.0242 30.1982 56.3182 30.6521 56.6039L30.6729 56.6121C30.802 56.6908 30.9353 56.7695 31.0644 56.844C31.3017 56.9848 31.5474 57.1214 31.789 57.2498L31.9431 57.3284C32.3012 57.5106 32.6635 57.6845 33.0383 57.846C33.1133 57.8791 33.1966 57.9122 33.2715 57.9453C33.2799 57.9495 33.2799 57.9495 33.2882 57.9536C33.4631 58.024 33.638 58.0944 33.8171 58.1606L33.5505 56.9723Z" fill="#3F3D56"/>
<path d="M40.1012 48.6866C43.5649 48.6866 46.3728 45.8949 46.3728 42.4512C46.3728 39.0075 43.5649 36.2158 40.1012 36.2158C36.6374 36.2158 33.8295 39.0075 33.8295 42.4512C33.8295 45.8949 36.6374 48.6866 40.1012 48.6866Z" fill="#FFB8B8"/>
<path d="M35.891 39.4116C36.5406 40.1734 37.6401 40.3929 38.652 40.4798C41.0216 40.6082 43.3995 40.4177 45.7149 39.9084C45.8565 41.2913 45.4651 42.7819 46.2855 43.9205C46.6686 42.5417 46.8935 41.1257 46.9518 39.6973C47.0142 39.0845 46.9309 38.4676 46.7144 37.8879C46.477 37.2959 45.9273 36.8943 45.2902 36.8446C45.7566 36.4926 46.3063 36.2608 46.8851 36.1655L44.8945 35.1719L45.4068 34.6502L41.8003 34.4307L42.8456 33.7724C41.2756 33.5571 39.6848 33.5074 38.1023 33.6234C37.361 33.6234 36.6364 33.8221 36.0034 34.203C35.4079 34.6253 35.0623 35.4658 35.4329 36.0869C34.4917 36.2401 33.6963 36.8653 33.334 37.743C33.1091 38.4262 33.0508 39.159 33.1758 39.867C33.3132 41.0056 33.5797 42.1277 33.9712 43.2083L35.891 39.4116Z" fill="#2F2E41"/>
<path d="M57.738 35.6905C54.3981 26.147 43.9078 21.104 34.3046 24.4246C24.7014 27.7452 19.6333 38.1748 22.9732 47.7183C23.652 49.656 24.6514 51.4612 25.9299 53.0677C26.0965 53.2747 26.2672 53.4817 26.4421 53.6804C26.4546 53.6928 26.4671 53.7053 26.4796 53.7218C26.9086 54.2145 27.3666 54.6824 27.8497 55.1296C27.9747 55.2455 28.1079 55.3614 28.2412 55.4732C28.491 55.6968 28.7492 55.9079 29.0158 56.115C29.1199 56.1978 29.224 56.2806 29.3323 56.3592C29.757 56.6781 30.1943 56.972 30.6482 57.2577L30.6691 57.266C30.7982 57.3447 30.9314 57.4233 31.0605 57.4978C31.2979 57.6386 31.5436 57.7752 31.7851 57.9036L31.9392 57.9823C32.2974 58.1644 32.6597 58.3383 33.0345 58.4998C33.1094 58.5329 33.1927 58.5661 33.2677 58.5992C33.276 58.6033 33.276 58.6033 33.2843 58.6075C33.4592 58.6778 33.6341 58.7482 33.8132 58.8145C34.4004 59.0381 34.9959 59.2285 35.6039 59.3858C37.1531 59.7957 38.7481 60.0028 40.3514 60.0028C40.9344 60.0028 41.5133 59.9779 42.0838 59.92C43.3914 59.7999 44.6783 59.5432 45.9276 59.1498C45.9318 59.1498 45.9359 59.1457 45.9359 59.1457C46.7272 58.8973 47.4976 58.5909 48.2472 58.2348C48.2514 58.2307 48.2555 58.2307 48.2597 58.2266C48.4263 58.1479 48.5887 58.0609 48.7553 57.9781L48.8344 57.9367C48.9676 57.8663 49.0967 57.8001 49.23 57.7256C49.559 57.5434 49.8838 57.3529 50.2045 57.1501C50.2919 57.0962 50.3794 57.0424 50.4668 56.9844C50.5918 56.9016 50.7167 56.8188 50.8416 56.7277C51.0041 56.6159 51.1665 56.5 51.3247 56.3841C51.3747 56.3468 51.4288 56.3137 51.4746 56.2723C57.8338 51.486 60.3574 43.1763 57.738 35.6905ZM50.8791 55.4815C50.7708 55.5684 50.6584 55.6471 50.546 55.7258C50.4377 55.8086 50.3294 55.8872 50.217 55.9576C50.1212 56.028 50.0254 56.0943 49.9255 56.1564L49.8963 56.1771C49.8255 56.2267 49.7506 56.2723 49.6798 56.3178C49.4049 56.4876 49.1301 56.6532 48.8469 56.8105L48.7594 56.8602C48.6345 56.9306 48.5096 56.9969 48.3846 57.059C48.368 57.0672 48.3471 57.0755 48.3305 57.0838L48.3097 57.0921C48.1514 57.1749 47.989 57.2536 47.8266 57.3281C47.2019 57.6262 46.5606 57.887 45.9026 58.1023C45.8152 58.1313 45.7319 58.1603 45.6444 58.1893C44.4617 58.5619 43.2415 58.8103 42.0047 58.9263C41.4633 58.976 40.9136 59.0008 40.3639 59.0008C38.848 59.0049 37.3363 58.8062 35.8746 58.417C35.125 58.2224 34.3879 57.974 33.6716 57.6759C33.6341 57.6593 33.5967 57.6469 33.5592 57.6303C33.5217 57.6138 33.4842 57.6014 33.4467 57.5848C33.4051 57.5682 33.3718 57.5517 33.3301 57.531C33.0178 57.3943 32.7138 57.2494 32.4098 57.0921L32.264 57.0176C31.8976 56.8271 31.5353 56.6242 31.1854 56.4048C31.0813 56.3427 30.9772 56.2764 30.8773 56.2061C30.8523 56.1895 30.8273 56.1729 30.8023 56.1564C30.5691 56.0032 30.3317 55.8417 30.1069 55.6719C29.9528 55.556 29.7945 55.4401 29.6446 55.3242C29.3906 55.1337 29.1449 54.9308 28.9075 54.7197C28.7826 54.6162 28.6576 54.5002 28.541 54.3926C28.0746 53.962 27.629 53.5065 27.2126 53.0263C27.0751 52.8689 26.9377 52.7116 26.8086 52.546C26.7795 52.5128 26.7503 52.4797 26.7253 52.4425C20.7577 44.9567 22.0237 34.0758 29.553 28.1468C37.0823 22.2178 48.0265 23.4723 53.99 30.9581C59.9576 38.4439 58.6916 49.3248 51.1623 55.2538C51.0665 55.3366 50.9749 55.407 50.8791 55.4815Z" fill="#3F3D56"/>
<path d="M57.7376 99.0372C54.3978 89.4937 43.9075 84.4507 34.3085 87.7713C24.7094 91.0919 19.6371 101.521 22.977 111.065C23.6558 113.003 24.6553 114.808 25.9338 116.414C26.1003 116.621 26.2711 116.828 26.446 117.027C26.4585 117.04 26.471 117.052 26.4835 117.069C26.9124 117.561 27.3705 118.029 27.8536 118.476C27.9785 118.592 28.1118 118.708 28.245 118.82C28.4949 119.043 28.7531 119.259 29.0196 119.462C29.5402 119.872 30.0857 120.252 30.6521 120.6L30.6729 120.609C31.0394 120.836 31.4142 121.043 31.7931 121.246L31.9472 121.325C32.3054 121.507 32.6677 121.681 33.0425 121.842C33.1174 121.875 33.2007 121.909 33.2757 121.942C33.284 121.946 33.284 121.946 33.2923 121.95C34.0461 122.261 34.8207 122.521 35.6119 122.728C37.1611 123.138 38.7561 123.345 40.3594 123.345C40.9424 123.345 41.5213 123.32 42.0918 123.262C43.3995 123.142 44.6863 122.886 45.9356 122.492C45.9398 122.492 45.9439 122.488 45.9439 122.488C46.7352 122.24 47.5056 121.933 48.2552 121.577C48.2594 121.573 48.2635 121.573 48.2677 121.569C48.4343 121.49 48.5967 121.403 48.7633 121.321L48.8424 121.279C48.9757 121.209 49.1047 121.143 49.238 121.068C49.567 120.886 49.8918 120.695 50.2125 120.493C50.2999 120.439 50.3874 120.385 50.4749 120.327C50.7664 120.137 51.0537 119.934 51.3286 119.727C51.3785 119.689 51.4327 119.656 51.4826 119.615C57.8334 114.833 60.3571 106.523 57.7376 99.0372Z" fill="white"/>
<path d="M46.4311 112.592C47.9536 112.592 49.1879 111.365 49.1879 109.851C49.1879 108.338 47.9536 107.11 46.4311 107.11C44.9085 107.11 43.6742 108.338 43.6742 109.851C43.6742 111.365 44.9085 112.592 46.4311 112.592Z" fill="#2F2E41"/>
<path d="M47.1974 107.185C48.7216 107.185 49.9543 108.415 49.9543 109.926C49.9543 110.381 49.8418 110.828 49.6253 111.226C50.5748 110.042 50.3832 108.319 49.1922 107.371C48.0011 106.427 46.2687 106.618 45.3151 107.802C45.211 107.93 45.1193 108.067 45.0402 108.212C45.5649 107.566 46.3604 107.185 47.1974 107.185Z" fill="#2F2E41"/>
<path d="M41.2758 109.849C45.7516 109.849 49.3798 106.241 49.3798 101.792C49.3798 97.3417 45.7516 93.7344 41.2758 93.7344C36.8001 93.7344 33.1718 97.3417 33.1718 101.792C33.1718 106.241 36.8001 109.849 41.2758 109.849Z" fill="#2F2E41"/>
<path d="M34.9166 96.793C37.8192 93.547 42.7874 93.1743 46.144 95.9484C46.0773 95.8863 46.0107 95.8241 45.9441 95.762C42.6125 92.7934 37.4903 93.075 34.5043 96.3872C31.5184 99.6995 31.8016 104.792 35.1332 107.761C35.1498 107.773 35.1623 107.79 35.179 107.802C35.2498 107.864 35.3164 107.922 35.3872 107.98C32.2222 104.987 32.014 100.039 34.9166 96.793Z" fill="#2F2E41"/>
<path d="M41.2047 109.777C44.0866 109.777 46.4228 107.454 46.4228 104.589C46.4228 101.724 44.0866 99.4014 41.2047 99.4014C38.3229 99.4014 35.9867 101.724 35.9867 104.589C35.9867 107.454 38.3229 109.777 41.2047 109.777Z" fill="#A0616A"/>
<path d="M50.5457 118.108V119.847C50.2251 120.05 49.9003 120.24 49.5713 120.423C49.438 120.493 49.3089 120.563 49.1756 120.634L49.0965 120.675C48.9299 120.758 48.7675 120.841 48.6009 120.924C48.5968 120.928 48.5926 120.928 48.5885 120.932C47.8389 121.288 47.0684 121.59 46.2772 121.843C46.273 121.843 46.2689 121.847 46.2689 121.847C45.0195 122.24 43.7285 122.497 42.4251 122.617C41.8545 122.671 41.2757 122.7 40.6927 122.7C39.0893 122.7 37.4944 122.493 35.9452 122.083C35.1539 121.876 34.3794 121.615 33.6256 121.305C33.6173 121.3 33.6173 121.3 33.6089 121.296C33.534 121.263 33.4507 121.23 33.3757 121.197C33.0009 121.035 32.6386 120.862 32.2805 120.679L32.1264 120.601C31.7474 120.402 31.3726 120.191 31.0061 119.963L30.9853 119.955C30.419 119.607 29.8776 119.226 29.3529 118.816C29.0863 118.613 28.8281 118.398 28.5783 118.174C28.445 118.063 28.3159 117.943 28.1868 117.831C27.7037 117.388 27.2456 116.92 26.8167 116.423C26.875 116.079 26.9583 115.744 27.0666 115.413L27.0707 115.409C27.0916 115.351 27.1124 115.297 27.1415 115.243C27.1582 115.197 27.179 115.148 27.204 115.106C27.7954 114.005 28.8656 113.732 30.1941 113.674C30.9437 113.641 31.7724 113.678 32.6469 113.666C33.1092 113.661 33.5881 113.645 34.067 113.603C37.0904 113.33 36.5407 111.558 36.6781 110.602C36.8156 109.674 37.6526 110.477 37.7109 110.531L37.7151 110.535C39.4267 111.33 41.3173 111.662 43.1997 111.492C43.5245 111.45 43.8451 111.43 44.17 111.421C45.0237 111.413 44.8363 111.653 44.5448 111.856C44.4032 111.951 44.2533 112.034 44.0992 112.105C44.0992 112.105 43.9617 112.924 43.8243 114.154C43.6911 115.33 45.9565 115.881 46.1481 115.926C46.1522 115.93 46.1564 115.93 46.1606 115.93C46.9893 115.715 47.8597 115.74 48.6759 115.997H48.6801C49.6129 116.332 50.3209 117.131 50.5457 118.108Z" fill="#0353EF"/>
<path d="M33.6547 120.22C33.6547 120.464 33.6464 120.696 33.638 120.915C33.6339 121.048 33.6297 121.176 33.6214 121.296C33.613 121.292 33.613 121.292 33.6047 121.288C33.5298 121.255 33.4465 121.222 33.3715 121.189C32.9967 121.027 32.6344 120.853 32.2763 120.671L32.1222 120.592C31.7432 120.394 31.3684 120.183 31.0019 119.955C31.0103 119.839 31.0269 119.723 31.0436 119.611C31.0811 119.359 31.1102 119.102 31.131 118.849C31.2601 117.073 30.9353 115.293 30.1899 113.674V113.67C30.1232 113.537 30.0858 113.467 30.0858 113.467C30.0858 113.467 31.0477 112.647 32.4178 113.467C32.5053 113.517 32.5844 113.583 32.6469 113.666C33.4673 114.634 33.6922 117.893 33.6547 120.22Z" fill="#2F2E41"/>
<path d="M48.6552 119.772C48.6427 120.14 48.6219 120.525 48.601 120.914V120.919C48.5969 120.923 48.5927 120.923 48.5886 120.927C47.839 121.283 47.0685 121.585 46.2773 121.838C46.2731 121.838 46.269 121.842 46.269 121.842L46.2315 120.919L46.2273 120.799L46.0524 116.306C46.0316 115.892 46.3564 115.536 46.777 115.52C46.7895 115.52 46.7978 115.52 46.8103 115.52H48.4844C48.5677 115.52 48.626 115.685 48.6677 115.987V115.992C48.7468 117.246 48.7426 118.513 48.6552 119.772Z" fill="#2F2E41"/>
<path d="M36.7449 98.1055V103.293H37.9526L39.4892 101.654L39.2852 103.293H44.6282L44.2992 101.654L44.9613 103.293H45.8067V98.1055H36.7449Z" fill="#2F2E41"/>
<path d="M35.9203 104.247C36.148 104.247 36.3326 103.911 36.3326 103.497C36.3326 103.084 36.148 102.748 35.9203 102.748C35.6926 102.748 35.5081 103.084 35.5081 103.497C35.5081 103.911 35.6926 104.247 35.9203 104.247Z" fill="#A0616A"/>
<path d="M46.4936 104.247C46.7213 104.247 46.9059 103.911 46.9059 103.497C46.9059 103.084 46.7213 102.748 46.4936 102.748C46.2659 102.748 46.0814 103.084 46.0814 103.497C46.0814 103.911 46.2659 104.247 46.4936 104.247Z" fill="#A0616A"/>
<path d="M51.666 119.081C51.387 119.288 51.0996 119.491 50.8123 119.681C50.7248 119.739 50.6374 119.797 50.5499 119.847C50.2293 120.05 49.9044 120.24 49.5754 120.422C49.4422 120.493 49.3131 120.563 49.1798 120.633V117.015C49.1798 117.015 49.7087 117.437 50.5499 118.137C50.654 118.224 50.7665 118.319 50.8789 118.414C51.1204 118.617 51.3828 118.841 51.666 119.081Z" fill="#0353EF"/>
<path d="M57.7376 99.0372C54.3978 89.4937 43.9075 84.4507 34.3085 87.7713C24.7094 91.0919 19.6371 101.521 22.977 111.065C23.6558 113.003 24.6553 114.808 25.9338 116.414C26.1003 116.621 26.2711 116.828 26.446 117.027C26.4585 117.04 26.471 117.052 26.4835 117.069C26.9124 117.561 27.3705 118.029 27.8536 118.476C27.9785 118.592 28.1118 118.708 28.245 118.82C28.4949 119.043 28.7531 119.259 29.0196 119.462C29.5402 119.872 30.0857 120.252 30.6521 120.6L30.6729 120.609C31.0394 120.836 31.4142 121.043 31.7931 121.246L31.9472 121.325C32.3054 121.507 32.6677 121.681 33.0425 121.842C33.1174 121.875 33.2007 121.909 33.2757 121.942C33.284 121.946 33.284 121.946 33.2923 121.95C34.0461 122.261 34.8207 122.521 35.6119 122.728C37.1611 123.138 38.7561 123.345 40.3594 123.345C40.9424 123.345 41.5213 123.32 42.0918 123.262C43.3995 123.142 44.6863 122.886 45.9356 122.492C45.9398 122.492 45.9439 122.488 45.9439 122.488C46.7352 122.24 47.5056 121.933 48.2552 121.577C48.2594 121.573 48.2635 121.573 48.2677 121.569C48.4343 121.49 48.5967 121.403 48.7633 121.321L48.8424 121.279C48.9757 121.209 49.1047 121.143 49.238 121.068C49.567 120.886 49.8918 120.695 50.2125 120.493C50.2999 120.439 50.3874 120.385 50.4749 120.327C50.7664 120.137 51.0537 119.934 51.3286 119.727C51.3785 119.689 51.4327 119.656 51.4826 119.615C57.8334 114.833 60.3571 106.523 57.7376 99.0372ZM50.8788 118.828C50.7705 118.915 50.6581 118.994 50.5456 119.072C50.4374 119.155 50.3291 119.234 50.2167 119.304C50.1209 119.375 50.0251 119.441 49.9251 119.503C49.8419 119.557 49.7586 119.611 49.6753 119.665C49.4004 119.834 49.1256 120 48.8424 120.157L48.7549 120.207C48.63 120.277 48.5051 120.344 48.3801 120.406C48.3635 120.414 48.3427 120.422 48.326 120.43L48.3052 120.439C48.1469 120.522 47.9845 120.6 47.8221 120.675C47.1974 120.973 46.5561 121.234 45.8981 121.449C45.8107 121.478 45.7274 121.507 45.6399 121.536C44.4572 121.909 43.237 122.157 42.0002 122.273C41.4588 122.323 40.9091 122.347 40.3594 122.347C38.8435 122.352 37.3319 122.153 35.8701 121.764C35.1205 121.569 34.3834 121.321 33.6671 121.023C33.5922 120.994 33.5172 120.96 33.4423 120.931C33.4048 120.915 33.3673 120.898 33.3257 120.878C33.0133 120.741 32.7093 120.596 32.4053 120.439L32.2596 120.364C31.8931 120.174 31.5308 119.971 31.181 119.751C31.0519 119.673 30.9228 119.59 30.7978 119.503C30.4022 119.242 30.0149 118.965 29.6401 118.671C29.3861 118.48 29.1404 118.277 28.903 118.066C28.7781 117.963 28.6531 117.847 28.5365 117.739C28.0701 117.309 27.6245 116.853 27.2081 116.373C27.0706 116.216 26.9332 116.058 26.8041 115.893C26.775 115.86 26.7458 115.826 26.7208 115.789C20.7532 108.303 22.0192 97.4225 29.5485 91.4935C37.0778 85.5603 48.022 86.819 53.9855 94.3048C59.949 101.791 58.6871 112.671 51.1578 118.6C51.0662 118.683 50.9746 118.754 50.8788 118.828Z" fill="#3F3D56"/>
<path d="M40.4593 176.623C44.4406 176.623 47.668 173.414 47.668 169.456C47.668 165.498 44.4406 162.289 40.4593 162.289C36.4781 162.289 33.2507 165.498 33.2507 169.456C33.2507 173.414 36.4781 176.623 40.4593 176.623Z" fill="#2F2E41"/>
<path d="M34.8298 165.586C35.9943 164.428 36.2302 162.786 35.3569 161.918C34.4836 161.05 32.8317 161.284 31.6672 162.442C30.5028 163.6 30.2668 165.242 31.1401 166.11C32.0135 166.979 33.6654 166.744 34.8298 165.586Z" fill="#2F2E41"/>
<path d="M47.9712 163.309C48.4563 162.179 47.622 160.743 46.1076 160.1C44.5932 159.457 42.9723 159.851 42.4872 160.98C42.002 162.109 42.8364 163.546 44.3508 164.189C45.8651 164.832 47.4861 164.438 47.9712 163.309Z" fill="#2F2E41"/>
<path d="M49.084 183.361L48.2344 182.032C47.4806 180.359 45.5109 179.614 43.8284 180.359C42.1585 181.105 41.4005 183.051 42.1377 184.719L42.3792 185.58L42.654 186.557C43.7659 186.417 44.8654 186.181 45.9356 185.845C45.9398 185.845 45.9398 185.845 45.944 185.841C46.7352 185.593 47.5056 185.286 48.2552 184.93C48.2594 184.926 48.2636 184.926 48.2677 184.922C48.4343 184.843 48.5967 184.76 48.7633 184.678C48.7924 184.665 48.8174 184.653 48.8424 184.636C48.9757 184.57 49.1089 184.5 49.238 184.429C49.3713 184.359 49.5004 184.284 49.6253 184.206L49.084 183.361Z" fill="#CACACA"/>
<path d="M40.6885 177.249C44.0671 177.249 46.8061 174.526 46.8061 171.167C46.8061 167.808 44.0671 165.085 40.6885 165.085C37.3099 165.085 34.5709 167.808 34.5709 171.167C34.5709 174.526 37.3099 177.249 40.6885 177.249Z" fill="#FFB6B6"/>
<path d="M49.5255 183.099C48.8509 181.982 48.0138 180.971 47.0394 180.102C46.373 179.51 45.511 179.183 44.6156 179.183H35.9952C33.988 179.183 32.3597 180.797 32.3597 182.793C32.3597 182.872 32.3638 182.946 32.368 183.025C32.3888 183.302 32.4388 183.58 32.5179 183.845C32.5804 184.039 32.6554 184.226 32.747 184.408L33.1717 185.252C33.2051 185.265 33.2384 185.281 33.2717 185.294C33.28 185.298 33.2842 185.298 33.2884 185.302C33.4633 185.372 33.6382 185.443 33.8172 185.509C34.4044 185.733 34.9999 185.923 35.6079 186.08C36.5866 186.341 37.5819 186.519 38.5897 186.615C39.1769 186.668 39.7641 186.697 40.3554 186.697C40.9426 186.697 41.5173 186.668 42.092 186.615C42.2794 186.598 42.4668 186.577 42.6542 186.557C43.7661 186.416 44.8655 186.18 45.9358 185.844C45.9399 185.844 45.9399 185.844 45.9441 185.84C46.7354 185.592 47.5058 185.286 48.2554 184.929C48.2595 184.925 48.2637 184.925 48.2679 184.921C48.4344 184.843 48.5969 184.76 48.7634 184.677C48.7926 184.664 48.8176 184.652 48.8426 184.635C48.9758 184.569 49.1091 184.499 49.2382 184.428C49.3714 184.358 49.5005 184.284 49.6255 184.205C49.7587 184.135 49.8837 184.056 50.0128 183.977C49.8545 183.667 49.6921 183.377 49.5255 183.099Z" fill="#CACACA"/>
<path d="M37.5569 180.292C35.8953 179.518 33.9213 180.226 33.1342 181.874L32.368 183.025L32.0015 183.576L31.4435 184.412C31.5601 184.474 31.6725 184.536 31.7891 184.598L31.9432 184.677C32.3014 184.859 32.6637 185.033 33.0385 185.194C33.0801 185.215 33.1259 185.232 33.1717 185.252C33.205 185.265 33.2384 185.281 33.2717 185.294C33.28 185.298 33.2842 185.298 33.2883 185.302C33.4632 185.372 33.6381 185.443 33.8172 185.509C34.4044 185.733 34.9999 185.923 35.6079 186.08C36.5866 186.341 37.5819 186.519 38.5897 186.615L38.8812 185.633L39.1644 184.698C39.9431 183.041 39.2227 181.071 37.5569 180.292Z" fill="#CACACA"/>
<path d="M34.2586 167.341C35.6579 168.297 37.3153 168.811 39.0144 168.802C38.4106 169.221 37.7193 169.502 36.9946 169.631C39.2518 170.111 41.588 170.123 43.8493 169.668C44.3532 169.589 44.8363 169.424 45.2861 169.179C45.7358 168.931 46.0565 168.5 46.1731 168.003C46.323 167.15 45.6525 166.372 44.9571 165.85C42.7999 164.252 40.0347 163.706 37.4278 164.356C36.5699 164.525 35.787 164.964 35.1956 165.61C34.6084 166.281 34.5335 167.254 35.0082 168.008L34.2586 167.341Z" fill="#2F2E41"/>
<path d="M57.7379 162.386C54.398 152.842 43.9078 147.795 34.3087 151.12C24.7097 154.44 19.6332 164.87 22.9773 174.413C23.6561 176.351 24.6556 178.16 25.9382 179.767C26.1006 179.974 26.2755 180.181 26.4504 180.38C26.4588 180.396 26.4713 180.409 26.4837 180.421C26.9169 180.914 27.3749 181.382 27.858 181.825C27.983 181.94 28.1121 182.061 28.2453 182.172C28.4952 182.396 28.7534 182.607 29.0241 182.81C29.1282 182.893 29.2323 182.976 29.3406 183.054C29.7612 183.373 30.2026 183.667 30.6524 183.953C30.6607 183.953 30.669 183.957 30.6732 183.961C30.8023 184.04 30.9355 184.118 31.0688 184.193C31.1937 184.267 31.3228 184.342 31.4478 184.412C31.5644 184.474 31.6768 184.536 31.7934 184.599L31.9475 184.677C32.3056 184.859 32.668 185.033 33.0428 185.195C33.0844 185.216 33.1302 185.232 33.176 185.253C33.2093 185.265 33.2427 185.282 33.276 185.294C33.2843 185.298 33.2885 185.298 33.2926 185.302C33.4675 185.373 33.6424 185.443 33.8215 185.509C34.4087 185.733 35.0042 185.924 35.6122 186.081C36.5909 186.342 37.5862 186.52 38.594 186.615C39.1812 186.669 39.7683 186.698 40.3597 186.698C40.9469 186.698 41.5216 186.669 42.0963 186.615C42.2837 186.598 42.4711 186.578 42.6585 186.557C43.7704 186.416 44.8698 186.18 45.9401 185.845C45.9442 185.845 45.9442 185.845 45.9484 185.841C46.7396 185.592 47.5101 185.286 48.2597 184.93C48.2638 184.926 48.268 184.926 48.2721 184.922C48.4387 184.843 48.6011 184.76 48.7677 184.677C48.7969 184.665 48.8219 184.652 48.8468 184.636C48.9801 184.57 49.1134 184.499 49.2425 184.429C49.3757 184.358 49.5048 184.284 49.6298 184.205C49.763 184.135 49.888 184.056 50.0171 183.978C50.0837 183.936 50.1503 183.895 50.2169 183.853C50.3086 183.799 50.3919 183.746 50.4835 183.684C50.6084 183.605 50.7333 183.518 50.8541 183.431C51.0165 183.319 51.1789 183.203 51.3372 183.083C51.3913 183.05 51.4413 183.013 51.4913 182.971C57.8337 178.177 60.3532 169.871 57.7379 162.386ZM50.8791 182.172C50.7708 182.259 50.6584 182.342 50.5459 182.417C50.4335 182.499 50.3252 182.578 50.2128 182.653C50.117 182.719 50.0212 182.785 49.9213 182.847C49.9129 182.855 49.9004 182.864 49.8921 182.868C49.8213 182.918 49.7464 182.963 49.6756 183.009C49.6256 183.038 49.5756 183.071 49.5256 183.1C49.3799 183.191 49.2341 183.278 49.0842 183.361C49.0051 183.41 48.9218 183.456 48.8427 183.501C48.8135 183.518 48.7844 183.535 48.7552 183.551C48.6261 183.621 48.5012 183.684 48.3763 183.75C48.3596 183.762 48.3388 183.766 48.3263 183.779C48.318 183.779 48.3096 183.783 48.3055 183.787C48.1472 183.87 47.9848 183.949 47.8224 184.023C47.1977 184.321 46.5522 184.582 45.8942 184.797C45.811 184.826 45.7235 184.859 45.6402 184.884C44.5783 185.22 43.4872 185.452 42.3794 185.58C42.2545 185.596 42.1254 185.609 41.9963 185.621C41.4549 185.671 40.9094 185.696 40.3555 185.696C39.8641 185.696 39.3686 185.675 38.8813 185.634C37.861 185.551 36.8532 185.373 35.8663 185.112C35.1167 184.917 34.3795 184.669 33.6633 184.367C33.6258 184.35 33.5883 184.338 33.5508 184.321C33.5092 184.305 33.4759 184.292 33.4384 184.276C33.3967 184.259 33.3634 184.243 33.3218 184.222C33.0511 184.106 32.7804 183.978 32.518 183.845C32.4806 183.824 32.4431 183.808 32.4056 183.787L32.2598 183.713C32.1724 183.667 32.0849 183.621 32.0016 183.576C31.7226 183.427 31.4478 183.265 31.1812 183.1C31.0813 183.038 30.973 182.971 30.8731 182.905L30.7981 182.855C30.5649 182.698 30.3317 182.541 30.1027 182.371C29.9486 182.255 29.7903 182.143 29.6404 182.023C29.3864 181.833 29.1407 181.63 28.9033 181.419C28.7784 181.315 28.6534 181.199 28.5368 181.092C28.0662 180.661 27.6248 180.206 27.2084 179.725C27.0709 179.568 26.9335 179.411 26.8044 179.245C26.7753 179.212 26.7503 179.179 26.7211 179.142C20.7535 171.656 22.0195 160.775 29.5488 154.842C37.0781 148.909 48.0223 150.167 53.9899 157.653C59.9576 165.139 58.6916 176.02 51.1623 181.953C51.0707 182.027 50.9749 182.102 50.8791 182.172Z" fill="#3F3D56"/>
<path d="M71.1472 72.9899C52.8903 57.6747 25.6006 59.9726 10.1963 78.124C-5.20796 96.2753 -2.89669 123.407 15.3602 138.722C32.4386 153.048 57.6794 152.083 73.6001 136.499L126.655 181.008C128.342 182.416 130.857 182.196 132.269 180.519C133.676 178.851 133.468 176.367 131.798 174.955L131.794 174.951L78.739 130.442C91.5114 112.216 88.2214 87.3156 71.1472 72.9899ZM67.724 126.156C56.1843 139.757 35.7369 141.476 22.0608 130.003C8.3848 118.53 6.65239 98.2006 18.1921 84.6036C29.7318 71.0067 50.1792 69.2843 63.8552 80.7572C77.5355 92.2302 79.2679 112.555 67.724 126.156Z" fill="#3F3D56"/>
<path opacity="0.3" d="M22.061 130.004C9.172 119.189 6.77744 100.35 16.5639 86.6914C15.9434 87.3125 15.3437 87.9625 14.7649 88.6415C3.22516 102.243 4.95341 122.568 18.6336 134.041C32.3138 145.514 52.7571 143.795 64.2968 130.194C64.8757 129.515 65.417 128.82 65.9251 128.103C54.0314 139.99 34.9499 140.814 22.061 130.004Z" fill="black"/>
<path d="M178.103 182.672C179.669 180.771 179.39 177.968 177.478 176.411C177.274 176.246 177.058 176.097 176.825 175.968L167.155 136.614L160.1 138.854L170.545 177.939C169.478 180.171 170.432 182.837 172.677 183.897C174.555 184.783 176.8 184.278 178.103 182.672Z" fill="#FFB6B6"/>
<path d="M173.105 157.499L167.95 161.921L160.737 168.103L157.551 151.897L157.218 150.212L156.956 148.875L164.264 136.218L170.357 136.566L170.773 136.59L170.782 136.681L170.878 137.53L172.127 148.701L172.156 148.97L173.105 157.499Z" fill="#3F3D56"/>
<path d="M139.407 267.497H134.301L131.873 247.917L139.411 247.921L139.407 267.497Z" fill="#FFB6B6"/>
<path d="M140.71 272.42H124.248V272.213C124.248 268.694 127.117 265.841 130.657 265.841H140.71V272.42Z" fill="#2F2E41"/>
<path d="M192.712 267.911H187.606L185.178 248.331L192.716 248.335L192.712 267.911Z" fill="#FFB6B6"/>
<path d="M194.015 272.834H177.553V272.627C177.553 269.108 180.422 266.255 183.962 266.255H194.015V272.834Z" fill="#2F2E41"/>
<path d="M196.793 260.118L183.05 262.188L163.057 194.916L141.822 262.602L126.414 260.532L146.403 181.865V175.655L149.11 166.339L148.827 163.817L146.857 146.184L146.003 138.536L145.949 138.044C145.853 137.187 146.428 136.392 147.278 136.214L153.691 134.872H164.173L170.357 136.565L170.782 136.681L170.973 136.735L170.878 137.53L169.428 149.612L169.349 150.274L167.95 161.921L167.642 164.476C179.719 173.17 180.135 181.865 180.135 181.865L196.793 260.118Z" fill="#2F2E41"/>
<path d="M157.668 129.634C163.317 129.634 167.896 125.082 167.896 119.466C167.896 113.85 163.317 109.297 157.668 109.297C152.019 109.297 147.44 113.85 147.44 119.466C147.44 125.082 152.019 129.634 157.668 129.634Z" fill="#FFB6B6"/>
<path d="M168.42 162.139L148.185 164.771L148.564 167.644L168.798 165.013L168.42 162.139Z" fill="#3F3D56"/>
<path d="M121.033 165.635C121.225 165.759 121.408 165.9 121.583 166.053L141.597 160.981L142.963 156.183L150.518 157.284L148.931 166.016C148.669 167.465 147.473 168.566 146.003 168.72L122.637 171.167C121.6 173.336 118.993 174.259 116.811 173.229C114.628 172.198 113.7 169.606 114.737 167.436C115.774 165.267 118.381 164.343 120.563 165.374C120.725 165.453 120.883 165.54 121.033 165.635Z" fill="#FFB6B6"/>
<path d="M151.817 138.807L148.277 136.116C147.319 135.755 146.007 136.782 145.778 137.772L140.781 158.06L151.192 165.512L152.65 163.235L151.817 138.807Z" fill="#3F3D56"/>
<g opacity="0.2">
<path opacity="0.2" d="M172.127 148.702C171.244 149.05 170.345 149.356 169.428 149.613C169.137 149.7 168.837 149.782 168.541 149.861C166.592 150.399 164.589 150.722 162.569 150.822C161.699 150.859 160.829 150.834 159.963 150.751C159.034 150.66 158.114 150.478 157.218 150.213C157.189 150.205 157.156 150.197 157.127 150.188C155.265 149.662 153.558 148.698 152.15 147.377C151.834 147.071 151.542 146.748 151.271 146.404C149.697 144.491 149.01 142.007 149.372 139.56C149.406 139.34 149.456 139.125 149.514 138.91C149.672 138.326 149.88 137.759 150.134 137.212C150.247 136.956 150.372 136.703 150.505 136.455L155.211 134.873H164.173L170.357 136.566L170.773 136.591L170.782 136.682L170.973 136.736L170.878 137.531L172.127 148.702Z" fill="black"/>
</g>
<path d="M149.826 111.045C147.915 110.813 145.816 110.978 144.325 112.192C142.834 113.405 142.351 115.93 143.763 117.235C145.012 118.39 146.965 118.116 148.639 118.448C151.609 119.11 153.737 121.702 153.795 124.725C153.77 128.935 149.706 132.127 148.973 136.276C148.473 139.108 149.676 142.089 151.75 144.089C153.824 146.089 156.681 147.169 159.559 147.463C162.436 147.757 165.343 147.31 168.142 146.573C170.948 145.836 173.714 144.789 176.067 143.099C178.419 141.41 180.352 139.029 181.11 136.243C181.868 133.457 181.322 130.26 179.373 128.12C177.141 125.669 173.43 124.828 171.498 122.133C169.333 119.114 170.136 114.817 168.383 111.546C167.213 109.36 165.002 107.873 162.64 107.087C160.279 106.3 157.76 106.147 155.273 106.072C153.966 106.031 152.617 106.018 151.401 106.494C150.184 106.971 149.11 108.047 149.048 109.347C148.985 110.647 149.826 111.045 149.826 111.045Z" fill="#2F2E41"/>
<path d="M245.584 273H86.9181C86.689 273 86.5016 272.814 86.5016 272.586C86.5016 272.358 86.689 272.172 86.9181 272.172H245.584C245.813 272.172 246 272.358 246 272.586C246 272.814 245.817 273 245.584 273Z" fill="#CACACA"/>
</svg>
