<?xml version="1.0" standalone="no"?>
<!DOCTYPE svg PUBLIC "-//W3C//DTD SVG 20010904//EN"
 "http://www.w3.org/TR/2001/REC-SVG-20010904/DTD/svg10.dtd">
<svg version="1.0" xmlns="http://www.w3.org/2000/svg"
 width="256.000000pt" height="256.000000pt" viewBox="0 0 256.000000 256.000000"
 preserveAspectRatio="xMidYMid meet">

<g transform="translate(0.000000,256.000000) scale(0.100000,-0.100000)"
fill="#000000" stroke="none">
<path d="M681 2545 c-101 -23 -168 -61 -247 -139 -103 -104 -143 -198 -144
-341 -1 -296 242 -525 533 -502 139 10 229 58 370 195 l87 86 93 -91 c156
-152 229 -186 402 -186 126 0 188 17 279 78 77 51 151 146 189 242 137 349
-195 739 -565 662 -101 -21 -175 -66 -288 -175 l-105 -102 -89 85 c-48 46
-111 100 -140 118 -107 71 -251 98 -375 70z m181 -96 c93 -20 149 -55 252
-158 l96 -97 -35 -34 -35 -34 -93 91 c-111 112 -160 137 -262 137 -89 1 -166
-34 -224 -100 -54 -62 -75 -127 -69 -218 6 -88 30 -138 98 -199 86 -78 195
-97 307 -56 53 20 84 47 353 314 316 313 340 332 459 356 167 32 353 -67 429
-229 24 -50 27 -69 27 -162 0 -99 -2 -110 -33 -172 -42 -86 -109 -153 -192
-192 -59 -28 -74 -31 -165 -31 -93 0 -105 2 -167 33 -45 22 -97 62 -163 124
l-96 91 35 35 35 35 96 -91 c116 -110 171 -136 275 -130 257 14 372 311 196
506 -50 55 -124 86 -206 86 -125 1 -132 -4 -460 -330 -263 -260 -303 -297
-362 -324 -203 -95 -437 -11 -532 190 -29 60 -31 73 -31 170 0 93 3 112 27
162 51 109 149 190 269 222 67 18 103 19 171 5z m-17 -200 c29 -8 64 -35 127
-97 49 -47 88 -91 88 -98 0 -18 -160 -165 -197 -181 -71 -29 -169 -6 -225 53
-75 81 -62 222 26 289 57 43 110 53 181 34z m987 1 c96 -27 158 -133 136 -233
-18 -86 -105 -157 -193 -157 -64 0 -108 26 -200 119 l-80 81 86 86 c108 108
160 129 251 104z"/>
<path d="M80 1728 c-53 -28 -83 -78 -77 -128 4 -32 153 -392 276 -669 77 -171
123 -234 285 -382 77 -72 143 -134 144 -140 2 -5 -7 -9 -21 -9 -51 0 -57 -22
-57 -202 0 -147 2 -167 18 -181 17 -15 75 -17 634 -17 583 0 616 1 631 18 14
16 17 44 17 184 0 147 -2 167 -18 181 -10 10 -28 17 -40 17 -12 0 -22 3 -22 8
0 4 59 60 130 125 158 143 206 202 269 332 66 135 300 687 307 724 15 76 -51
154 -130 154 -76 0 -100 -24 -221 -222 -82 -135 -114 -179 -125 -175 -81 35
-116 12 -262 -167 -144 -177 -175 -207 -315 -313 -105 -80 -166 -139 -198
-194 -23 -38 -28 -39 -42 -9 -6 13 -37 52 -69 86 -49 53 -61 62 -88 59 -23 -2
-33 -10 -40 -30 -9 -25 -5 -33 40 -80 27 -29 59 -69 71 -88 26 -43 53 -133 53
-177 l0 -33 -210 0 -210 0 0 29 c0 25 -22 50 -150 166 -82 75 -165 158 -184
183 -47 65 -98 170 -211 437 -53 127 -113 265 -131 309 -19 43 -32 86 -29 96
9 30 36 33 61 8 38 -39 234 -369 234 -394 0 -40 28 -114 101 -262 79 -160 102
-185 144 -158 34 22 32 43 -15 123 -65 113 -134 284 -123 302 22 35 42 21 143
-103 102 -128 127 -145 158 -114 28 28 12 63 -91 188 -85 104 -109 127 -145
140 -34 12 -48 12 -74 2 -18 -7 -34 -9 -36 -5 -1 5 -51 87 -111 183 -96 155
-113 178 -151 198 -25 12 -51 22 -60 22 -9 0 -36 -10 -60 -22z m2364 -94 c9
-8 16 -19 16 -24 0 -13 -264 -629 -305 -710 -57 -114 -94 -159 -256 -306 -126
-115 -149 -141 -149 -165 l0 -29 -210 0 -210 0 0 33 c0 49 28 136 60 187 37
58 82 100 206 193 132 99 149 115 293 295 68 83 129 152 136 152 7 0 18 -7 25
-16 11 -13 8 -29 -19 -97 -18 -45 -58 -128 -87 -184 -30 -56 -54 -109 -54
-117 0 -9 11 -23 25 -32 22 -15 27 -15 48 -1 23 15 126 206 166 307 11 30 25
76 29 101 13 69 234 429 263 429 4 0 15 -7 23 -16z m-1214 -1434 l0 -100 -250
0 -250 0 0 100 0 100 250 0 250 0 0 -100z m600 0 l0 -100 -250 0 -250 0 0 100
0 100 250 0 250 0 0 -100z"/>
<path d="M895 930 c-35 -39 3 -91 55 -75 28 9 37 51 15 75 -10 11 -26 20 -35
20 -9 0 -25 -9 -35 -20z"/>
</g>
</svg>
