<svg width="78" height="36" viewBox="0 0 78 36" fill="none" xmlns="http://www.w3.org/2000/svg">
<path d="M51.1175 25.2599C49.2637 25.2599 47.5212 24.5371 46.2123 23.2263L25.9547 2.92958C25.4839 2.45879 25.4858 1.69498 25.9566 1.22614C26.4274 0.755351 27.1893 0.757303 27.6601 1.22809L47.9177 21.5248C48.7714 22.3805 49.9083 22.8513 51.1175 22.8513C52.3267 22.8513 53.4637 22.3805 54.3174 21.5248L74.5731 1.23395C75.0439 0.763164 75.8057 0.763165 76.2765 1.232C76.7473 1.70279 76.7473 2.46465 76.2785 2.93544L56.0208 23.2263C54.712 24.5371 52.9714 25.2599 51.1175 25.2599Z" fill="#0353EF"/>
<path d="M75.8156 35.5485H26.4587C25.7926 35.5485 25.2534 35.0094 25.2534 34.3432V1.6555C25.2534 1.33513 25.3804 1.03038 25.607 0.803776C25.8336 0.577172 26.1403 0.450195 26.4587 0.450195L75.8136 0.454102C76.4797 0.454102 77.0189 0.993266 77.0189 1.65941V34.3432C77.0189 35.0094 76.4797 35.5485 75.8156 35.5485ZM27.664 33.1399H74.6103V2.86471L27.664 2.8608V33.1399Z" fill="#0353EF"/>
<path d="M75.0654 31.6453C74.7841 31.6453 74.5028 31.5476 74.2742 31.3483L62.0786 20.7311C61.2269 19.9888 60.2736 19.3344 59.2441 18.7854C58.6561 18.4729 58.4353 17.7423 58.7479 17.1562C59.0605 16.5702 59.7911 16.3475 60.3771 16.6601C61.5687 17.2949 62.6725 18.0529 63.6609 18.9144L75.8566 29.5316C76.3586 29.9692 76.4113 30.7291 75.9738 31.2311C75.7374 31.5066 75.4033 31.6453 75.0654 31.6453ZM27.455 31.4382C27.117 31.4382 26.783 31.2975 26.5446 31.0221C26.109 30.5201 26.1637 29.7582 26.6658 29.3226L38.6973 18.8909C39.6623 18.0529 40.7348 17.3145 41.8834 16.6952C42.4695 16.3788 43.2001 16.5975 43.5146 17.1836C43.8311 17.7696 43.6103 18.5002 43.0262 18.8148C42.0319 19.35 41.1059 19.9868 40.2757 20.7096L28.2442 31.1413C28.0156 31.3425 27.7343 31.4382 27.455 31.4382Z" fill="#0353EF"/>
<path d="M17.9788 35.3669H2.18481C1.48546 35.3669 0.918945 34.8003 0.918945 34.1029C0.918945 33.4055 1.48546 32.839 2.18481 32.839H17.9788C18.6781 32.839 19.2446 33.4055 19.2446 34.1029C19.2446 34.8003 18.6781 35.3669 17.9788 35.3669ZM18.0178 27.3087H2.22583C1.52648 27.3087 0.959969 26.7422 0.959969 26.0448C0.959969 25.3474 1.52648 24.7809 2.22583 24.7809H18.0198C18.7191 24.7809 19.2856 25.3474 19.2856 26.0448C19.2856 26.7422 18.7172 27.3087 18.0178 27.3087ZM18.0178 19.1529H2.22583C1.52648 19.1529 0.959969 18.5864 0.959969 17.887C0.959969 17.1877 1.52648 16.6212 2.22583 16.6212H18.0198C18.7191 16.6212 19.2856 17.1877 19.2856 17.887C19.2837 18.5864 18.7172 19.1529 18.0178 19.1529ZM17.9885 11.0948H2.19653C1.49718 11.0948 0.930667 10.5282 0.930667 9.8289C0.930667 9.12955 1.49718 8.56304 2.19653 8.56304H17.9885C18.6879 8.56304 19.2544 9.12955 19.2544 9.8289C19.2544 10.5282 18.6879 11.0948 17.9885 11.0948ZM17.9885 2.93895H2.19653C1.49718 2.93895 0.930667 2.37243 0.930667 1.67309C0.930667 0.973737 1.49718 0.407227 2.19653 0.407227H17.9885C18.6879 0.407227 19.2544 0.973737 19.2544 1.67309C19.2544 2.37243 18.6879 2.93895 17.9885 2.93895Z" fill="#0353EF"/>
</svg>
