<svg width="68" height="65" viewBox="0 0 68 65" fill="none" xmlns="http://www.w3.org/2000/svg">
<path d="M65.8704 57.567C65.5936 57.567 65.2971 57.4682 65.0796 57.2507L57.4685 50.3711C56.9743 49.9362 56.9545 49.1849 57.3895 48.6907C57.8244 48.1965 58.5756 48.1767 59.0698 48.6116L66.6809 55.4913C67.1751 55.9262 67.1949 56.6774 66.76 57.1716C66.503 57.4286 66.1867 57.567 65.8704 57.567Z" fill="white"/>
<path d="M58.2594 64.4468C57.9431 64.4468 57.6071 64.3084 57.3698 64.0514C56.9349 63.5572 56.9744 62.8059 57.4489 62.371L65.06 55.4914C65.5542 55.0565 66.3054 55.096 66.7403 55.5705C67.1753 56.0647 67.1357 56.8159 66.6613 57.2508L59.0502 64.1305C58.8327 64.3479 58.5362 64.4468 58.2594 64.4468Z" fill="white"/>
<path d="M28.7837 57.5674C12.9092 57.5674 0 44.6583 0 28.7837C0 12.9092 12.9092 0 28.7837 0C44.6583 0 57.5674 12.9092 57.5674 28.7837C57.5674 30.6815 57.3895 32.5596 57.0139 34.3981C56.8953 35.0307 56.2627 35.4657 55.6103 35.3273C54.9777 35.2087 54.5428 34.576 54.6812 33.9237C55.0172 32.2433 55.1951 30.5036 55.1951 28.764C55.1951 14.2139 43.3535 2.37228 28.7837 2.37228C14.2139 2.37228 2.37228 14.2139 2.37228 28.7837C2.37228 43.3535 14.2139 55.1952 28.7837 55.1952C28.9023 55.1952 29.0209 55.1952 29.1198 55.1952H65.8704C66.5228 55.1952 67.0566 55.7289 67.0566 56.3813C67.0566 57.0337 66.5228 57.5674 65.8704 57.5674H29.1396C29.0407 57.5674 28.9221 57.5674 28.7837 57.5674Z" fill="white"/>
</svg>
