<svg width="55" height="68" viewBox="0 0 55 68" fill="none" xmlns="http://www.w3.org/2000/svg">
<path d="M44.3875 51.1529C41.6921 51.1529 39.5058 49.0426 39.4121 46.3472L39.2849 42.6816C39.2372 41.3206 39.7321 40.0304 40.6794 39.0513C41.625 38.0721 42.8975 37.5312 44.2602 37.5312H44.5148C45.8775 37.5312 47.1482 38.0703 48.0956 39.0513C49.0412 40.0304 49.5378 41.3206 49.4901 42.6833L49.3628 46.349C49.2692 49.0426 47.0828 51.1529 44.3875 51.1529ZM44.2602 39.6522C43.479 39.6522 42.7491 39.9615 42.2047 40.5235C41.6621 41.0856 41.3775 41.8261 41.4041 42.6073L41.5313 46.273C41.5843 47.8195 42.8392 49.0302 44.3875 49.0302C45.934 49.0302 47.1889 47.8195 47.2419 46.273L47.3692 42.6073C47.3957 41.8261 47.1111 41.0856 46.5685 40.5235C46.0259 39.9615 45.296 39.6522 44.513 39.6522H44.2602Z" fill="white"/>
<path d="M9.69267 51.1537C6.99732 51.1537 4.811 49.0434 4.71732 46.348L4.59007 42.6824C4.54235 41.3214 5.03723 40.0312 5.98458 39.0503C6.93193 38.0711 8.20272 37.5303 9.56542 37.5303H9.81993C11.1826 37.5303 12.4534 38.0693 13.4008 39.0503C14.3481 40.0294 14.843 41.3197 14.7953 42.6806L14.668 46.3498C14.5743 49.0434 12.388 51.1537 9.69267 51.1537ZM9.56542 39.653C8.78421 39.653 8.05425 39.9623 7.50988 40.5243C6.96551 41.0864 6.68272 41.8269 6.70923 42.6081L6.83649 46.2738C6.88951 47.8203 8.14439 49.031 9.69091 49.031C11.2374 49.031 12.4923 47.8203 12.5471 46.2738L12.6743 42.6081C12.7009 41.8269 12.4163 41.0864 11.8737 40.5243C11.3311 39.9623 10.6011 39.653 9.81816 39.653H9.56542Z" fill="white"/>
<path d="M47.2632 52.885H41.5101C39.5536 52.885 37.7137 53.7316 36.434 55.1562C34.8805 53.599 32.7578 52.7012 30.5237 52.7012H23.2366C21.0626 52.7012 19.0336 53.523 17.4941 54.99C16.2216 53.6556 14.4594 52.885 12.5683 52.885H6.81526C3.05767 52.885 0 55.9409 0 59.6985V61.6232C0 62.6925 0.800652 63.5886 1.86112 63.7106L3.76819 63.9297C4.24893 63.9863 4.71377 64.1065 5.15209 64.2903C5.15916 64.2938 5.17154 64.2974 5.18214 64.3027C6.612 64.8948 8.1214 65.1952 9.67144 65.1952C11.2339 65.1952 12.7574 64.8895 14.2014 64.285C14.4453 64.1825 14.698 64.1029 14.9579 64.0429C15.1859 64.9937 15.9847 65.7325 16.9957 65.8492L19.4153 66.1284C20.041 66.1991 20.6543 66.36 21.2553 66.6092L21.2588 66.6109C23.0421 67.3515 24.9262 67.728 26.858 67.728C28.8005 67.728 30.6934 67.348 32.482 66.6003C33.0388 66.3688 33.6238 66.215 34.223 66.1443L36.7716 65.8492C37.802 65.7308 38.6133 64.9637 38.8219 63.9845C39.1754 64.0517 39.52 64.1524 39.847 64.2903C39.854 64.2938 39.8664 64.2974 39.877 64.3027C41.3069 64.8948 42.8163 65.1952 44.3663 65.1952C45.9287 65.1952 47.4523 64.8895 48.8963 64.285C49.3116 64.11 49.7535 63.9951 50.2077 63.9439L52.2191 63.7106C53.2795 63.5886 54.0802 62.6925 54.0802 61.625V59.6985C54.0802 55.9427 51.0225 52.885 47.2632 52.885ZM13.3813 62.3302C12.1989 62.8251 10.9511 63.0761 9.66967 63.0761C8.39535 63.0761 7.1546 62.8286 5.98102 62.339C5.97395 62.3355 5.96158 62.332 5.95098 62.3267C5.33591 62.0722 4.68372 61.9025 4.01209 61.8229L2.12093 61.6055V59.6985C2.12093 57.1109 4.22772 55.0059 6.81526 55.0059H12.5683C13.961 55.0059 15.2548 55.6104 16.1385 56.6514C15.3167 57.9682 14.8872 59.474 14.8872 61.0506V61.8919C14.3693 61.9802 13.8638 62.1269 13.3813 62.3302ZM36.754 63.4879C36.754 63.6187 36.6567 63.7282 36.5277 63.7424L33.9755 64.0375C33.1802 64.1295 32.4007 64.3345 31.662 64.6438C30.1331 65.2836 28.5159 65.607 26.8563 65.607C25.2055 65.607 23.5953 65.2854 22.0559 64.6473H22.0541C21.2853 64.3274 20.4776 64.1171 19.6557 64.0234L17.2361 63.7442C17.1071 63.73 17.0099 63.6204 17.0099 63.4896V62.8268V61.0523C17.0099 59.6737 17.45 58.3694 18.2842 57.2789L18.286 57.2771C19.4737 55.7182 21.2782 54.8239 23.2401 54.8239H30.5273C32.558 54.8239 34.4651 55.8172 35.6316 57.4821C36.3669 58.532 36.7557 59.7656 36.7557 61.0523V63.4879H36.754ZM51.9593 61.6055L49.9638 61.8371C49.3116 61.9131 48.6771 62.0775 48.0779 62.3284C46.8955 62.8233 45.6477 63.0743 44.3663 63.0743C43.092 63.0743 41.8513 62.8269 40.6777 62.3373C40.6706 62.3337 40.6582 62.3302 40.6476 62.3249C40.0838 62.0916 39.4882 61.9343 38.8749 61.8477V61.0506C38.8749 59.573 38.4896 58.1449 37.7579 56.8812C38.6398 55.7129 40.0273 55.0059 41.5119 55.0059H47.2649C49.8542 55.0059 51.9593 57.1109 51.9593 59.6985V61.6055Z" fill="white"/>
<path d="M26.881 50.7429C23.4716 50.7429 20.709 48.0741 20.5906 44.6665L20.421 39.7689C20.3609 38.0474 20.9865 36.416 22.1849 35.1771C23.3814 33.9381 24.9898 33.2559 26.713 33.2559H27.0542C28.7774 33.2559 30.3858 33.9381 31.5823 35.1771C32.7789 36.416 33.4063 38.0474 33.3463 39.7689L33.1766 44.6665C33.0546 48.0741 30.2903 50.7429 26.881 50.7429ZM26.7113 35.375C25.5695 35.375 24.502 35.8275 23.7084 36.6493C22.9148 37.4712 22.4995 38.5529 22.5401 39.6947L22.7098 44.5922C22.7893 46.851 24.6204 48.6202 26.881 48.6202C29.1415 48.6202 30.9743 46.851 31.0521 44.5922L31.2218 39.6947C31.2607 38.5529 30.8453 37.4712 30.0517 36.6493C29.2582 35.8275 28.1924 35.375 27.0489 35.375H26.7113Z" fill="white"/>
<path d="M27.4785 29.1027C27.2063 29.1027 26.9359 28.9984 26.7291 28.7916L19.6876 21.7501H10.5287C8.74715 21.7501 7.29785 20.3008 7.29785 18.5193V3.23088C7.29785 1.4493 8.74715 0 10.5287 0H44.3098C46.0914 0 47.5407 1.4493 47.5407 3.23088V18.521C47.5407 20.3026 46.0914 21.7519 44.3098 21.7519H35.2712L28.2279 28.7934C28.0211 29.0002 27.7489 29.1027 27.4785 29.1027ZM10.5287 2.12093C9.9172 2.12093 9.41878 2.61935 9.41878 3.23088V18.521C9.41878 19.1326 9.9172 19.631 10.5287 19.631H20.1277C20.4087 19.631 20.6792 19.7423 20.8771 19.942L27.4785 26.5434L34.0817 19.942C34.2814 19.7423 34.55 19.631 34.8311 19.631H44.3081C44.9196 19.631 45.418 19.1326 45.418 18.521V3.23088C45.418 2.61935 44.9196 2.12093 44.3081 2.12093H10.5287Z" fill="white"/>
<g filter="url(#filter0_i_2060_1795)">
<path d="M31.7927 10.0316H28.4787V6.71769C28.4787 6.13267 28.0033 5.65723 27.4183 5.65723C26.8333 5.65723 26.3578 6.13267 26.3578 6.71769V10.0316H23.0439C22.4588 10.0316 21.9834 10.5071 21.9834 11.0921C21.9834 11.6771 22.4588 12.1526 23.0439 12.1526H26.3578V15.4665C26.3578 16.0516 26.8333 16.527 27.4183 16.527C28.0033 16.527 28.4787 16.0516 28.4787 15.4665V12.1526H31.7927C32.3777 12.1526 32.8532 11.6771 32.8532 11.0921C32.8532 10.5071 32.3795 10.0316 31.7927 10.0316Z" fill="white"/>
</g>
<defs>
<filter id="filter0_i_2060_1795" x="21.9834" y="5.65723" width="10.8696" height="14.8701" filterUnits="userSpaceOnUse" color-interpolation-filters="sRGB">
<feFlood flood-opacity="0" result="BackgroundImageFix"/>
<feBlend mode="normal" in="SourceGraphic" in2="BackgroundImageFix" result="shape"/>
<feColorMatrix in="SourceAlpha" type="matrix" values="0 0 0 0 0 0 0 0 0 0 0 0 0 0 0 0 0 0 127 0" result="hardAlpha"/>
<feOffset dy="4"/>
<feGaussianBlur stdDeviation="2"/>
<feComposite in2="hardAlpha" operator="arithmetic" k2="-1" k3="1"/>
<feColorMatrix type="matrix" values="0 0 0 0 1 0 0 0 0 1 0 0 0 0 1 0 0 0 1 0"/>
<feBlend mode="normal" in2="shape" result="effect1_innerShadow_2060_1795"/>
</filter>
</defs>
</svg>
