<svg width="62" height="76" viewBox="0 0 62 76" fill="none" xmlns="http://www.w3.org/2000/svg">
<path d="M60.2827 75.1385C59.5339 75.1385 58.9253 74.5299 58.9253 73.7811V1.35648C58.9253 0.607614 59.5339 -0.000976562 60.2827 -0.000976562C61.0316 -0.000976562 61.6402 0.607614 61.6402 1.35648V73.7811C61.6402 74.5299 61.0339 75.1385 60.2827 75.1385Z" fill="#0353EF"/>
<path d="M1.71756 75.1385C0.968698 75.1385 0.360107 74.5299 0.360107 73.7811V1.35648C0.360107 0.607614 0.968698 -0.000976562 1.71756 -0.000976562C2.46642 -0.000976562 3.07501 0.607614 3.07501 1.35648V73.7811C3.07501 74.5299 2.46642 75.1385 1.71756 75.1385Z" fill="#0353EF"/>
<path d="M31 32.5299C30.2512 32.5299 29.6426 31.9213 29.6426 31.1724V25.0684C29.6426 24.3195 30.2512 23.7109 31 23.7109C31.7489 23.7109 32.3575 24.3195 32.3575 25.0684V31.1724C32.3575 31.9213 31.7489 32.5299 31 32.5299Z" fill="#0353EF"/>
<path d="M17.8352 32.1617C17.0864 32.1617 16.4778 31.5531 16.4778 30.8043V13.3135C16.4778 12.5646 17.0864 11.9561 17.8352 11.9561C18.5841 11.9561 19.1927 12.5646 19.1927 13.3135V30.8043C19.1927 31.5554 18.5864 32.1617 17.8352 32.1617Z" fill="#0353EF"/>
<path d="M12.093 32.1617C11.3442 32.1617 10.7356 31.5531 10.7356 30.8043V13.3135C10.7356 12.5646 11.3442 11.9561 12.093 11.9561C12.8419 11.9561 13.4505 12.5646 13.4505 13.3135V30.8043C13.4505 31.5554 12.8442 32.1617 12.093 32.1617Z" fill="#0353EF"/>
<path d="M49.9073 32.5292C49.1584 32.5292 48.5498 31.9206 48.5498 31.1718V13.6787C48.5498 12.9299 49.1584 12.3213 49.9073 12.3213C50.6561 12.3213 51.2647 12.9299 51.2647 13.6787V31.1695C51.2647 31.9206 50.6561 32.5292 49.9073 32.5292Z" fill="#0353EF"/>
<path d="M44.1651 32.5292C43.4162 32.5292 42.8076 31.9206 42.8076 31.1718V13.6787C42.8076 12.9299 43.4162 12.3213 44.1651 12.3213C44.9139 12.3213 45.5225 12.9299 45.5225 13.6787V31.1695C45.5225 31.9206 44.9139 32.5292 44.1651 32.5292Z" fill="#0353EF"/>
<path d="M31 20.774C30.2512 20.774 29.6426 20.1654 29.6426 19.4165V13.3125C29.6426 12.5637 30.2512 11.9551 31 11.9551C31.7489 11.9551 32.3575 12.5637 32.3575 13.3125V19.4165C32.3575 20.1677 31.7489 20.774 31 20.774Z" fill="#0353EF"/>
<path d="M50.4568 54.7805L35.8099 46.5702V40.7445C35.8099 38.0929 33.6516 35.9346 31 35.9346C28.3484 35.9346 26.1901 38.0929 26.1901 40.7445V46.5702L11.5409 54.7805C10.4278 55.405 9.89388 56.6334 10.2084 57.8371C10.5341 59.0814 11.6427 59.9185 12.9708 59.9185C13.0341 59.9185 13.0952 59.914 13.1586 59.9049L18.1291 59.2103V59.6153C18.1291 60.3642 18.7377 60.9728 19.4865 60.9728C20.2354 60.9728 20.844 60.3642 20.844 59.6153V58.8303L26.1901 58.0837V66.803L20.801 69.8234C19.4006 70.6084 19.5635 72.8573 19.8463 73.9364C20.3327 75.7984 21.4729 75.9998 21.9413 75.9998C22.0974 75.9998 22.2535 75.9726 22.4005 75.9183L31.0023 72.8188L39.604 75.9183C39.751 75.9726 39.9071 75.9998 40.0632 75.9998C40.5316 75.9998 41.6718 75.7984 42.1583 73.9364C42.4411 72.8573 42.604 70.6084 41.2035 69.8234L35.8144 66.803V58.0837L41.1605 58.8303V59.6266C41.1605 60.3755 41.7691 60.9841 42.518 60.9841C43.2668 60.9841 43.8754 60.3755 43.8754 59.6266V59.2103L48.846 59.9049C48.9093 59.914 48.9704 59.9185 49.0337 59.9185C50.3595 59.9185 51.4704 59.0814 51.7962 57.8371C52.1061 56.6334 51.5699 55.4027 50.4568 54.7805ZM49.0903 57.199L34.6402 55.181C34.2511 55.1267 33.8574 55.2443 33.5611 55.5022C33.2647 55.7601 33.095 56.1335 33.095 56.5271V67.6017C33.095 68.0926 33.3597 68.5451 33.7896 68.7849L39.6108 72.0473C39.6538 72.2962 39.6357 72.6944 39.5791 73.0292L31.4615 70.1039C31.3122 70.0496 31.1561 70.0224 31.0023 70.0224C30.8484 70.0224 30.69 70.0496 30.543 70.1039L22.4254 73.0292C22.3689 72.6944 22.353 72.2962 22.3938 72.0473L28.215 68.7849C28.6426 68.5451 28.9095 68.0926 28.9095 67.6017V56.5271C28.9095 56.1335 28.7398 55.7601 28.4435 55.5022C28.1471 55.2443 27.7534 55.1267 27.3643 55.181L12.9142 57.199C12.8803 57.1923 12.8577 57.181 12.8463 57.1651C12.8531 57.1606 12.8622 57.1538 12.8758 57.147L28.2172 48.5476C28.6448 48.3077 28.9118 47.8553 28.9118 47.3643V40.7445C28.9118 39.5884 29.8507 38.6495 31.0068 38.6495C32.1629 38.6495 33.1018 39.5884 33.1018 40.7445V47.3643C33.1018 47.8553 33.3665 48.3077 33.7963 48.5476L49.1378 57.147C49.1491 57.1538 49.1604 57.1606 49.1672 57.1651C49.1491 57.181 49.1242 57.1923 49.0903 57.199Z" fill="#0353EF"/>
</svg>
