<svg width="63" height="63" viewBox="0 0 63 63" fill="none" xmlns="http://www.w3.org/2000/svg">
<path d="M57.0375 0H5.33336C2.39354 0 0 2.39166 0 5.33336V57.0375C0 59.9773 2.39166 62.3708 5.33336 62.3708H57.0375C59.9773 62.3708 62.3708 59.9792 62.3708 57.0375V5.33336C62.3708 2.39166 59.9792 0 57.0375 0ZM5.33336 2.25274H57.0375C58.7364 2.25274 60.1181 3.63442 60.1181 5.33336V9.64548H2.25274V5.33336C2.25274 3.63442 3.63442 2.25274 5.33336 2.25274ZM5.33336 60.1181C3.63442 60.1181 2.25274 58.7364 2.25274 57.0375V11.8963H30.0591V60.1181H5.33336ZM60.1181 57.0375C60.1181 58.7364 58.7364 60.1181 57.0375 60.1181H32.3118V37.1345H60.1181V57.0375ZM32.3118 34.8818V11.8963H60.1181V34.8799H32.3118V34.8818Z" fill="white"/>
<path d="M46.2978 32.1873C45.3404 32.1873 44.3849 32.0014 43.4931 31.6316C43.2735 31.5396 43.0501 31.4814 42.823 31.4552L41.7172 31.3275C40.8443 31.2261 40.1873 30.4884 40.1873 29.6098V28.4947C40.1873 26.0373 42.1866 24.0361 44.6458 24.0361H47.978C50.4353 24.0361 52.4365 26.0354 52.4365 28.4947V29.6098C52.4365 30.4884 51.7795 31.2261 50.9065 31.3275L49.7407 31.4627C49.5267 31.4871 49.3184 31.5415 49.1194 31.6241C48.222 31.9996 47.259 32.1873 46.2978 32.1873ZM42.4381 29.1442L43.0783 29.2174C43.5157 29.2681 43.9418 29.3789 44.3473 29.5478C45.5919 30.066 47.0112 30.0641 48.2464 29.5478C48.6407 29.3826 49.0537 29.2756 49.4779 29.2268L50.18 29.1461V28.4984C50.18 27.282 49.1907 26.2926 47.9742 26.2926H44.642C43.4256 26.2926 42.4362 27.282 42.4362 28.4984V29.1442H42.4381Z" fill="white"/>
<path d="M46.3091 23.4974C44.4712 23.4974 42.9807 22.0575 42.9168 20.2215L42.8436 18.0983C42.8117 17.1691 43.1496 16.2905 43.7935 15.6222C44.4393 14.9539 45.3066 14.5859 46.2359 14.5859H46.3842C47.3134 14.5859 48.1807 14.9539 48.8265 15.6222C49.4723 16.2905 49.8102 17.1691 49.7764 18.0983L49.7032 20.2215C49.6375 22.0575 48.1488 23.4974 46.3091 23.4974ZM46.2359 16.8387C45.9242 16.8387 45.6314 16.9626 45.4136 17.1879C45.1959 17.4131 45.0832 17.7079 45.0945 18.0214L45.1677 20.1446C45.1884 20.7622 45.6896 21.2465 46.3091 21.2465C46.9267 21.2465 47.428 20.7622 47.4505 20.1446L47.5237 18.0214C47.535 17.7097 47.4204 17.4131 47.2045 17.1879C46.9868 16.9626 46.6958 16.8387 46.3823 16.8387H46.2359Z" fill="white"/>
<path d="M16.1352 49.7018C14.5902 49.7018 13.0452 49.4033 11.6053 48.8045C11.1547 48.6167 10.6948 48.4985 10.2255 48.444L8.31629 48.2244C7.22183 48.0986 6.39771 47.1731 6.39771 46.073V44.1488C6.39771 40.3548 9.48396 37.2686 13.2779 37.2686H19.0318C22.8258 37.2686 25.9121 40.3548 25.9121 44.1488V46.073C25.9121 47.1731 25.0879 48.0986 23.9954 48.2244L21.9829 48.4572C21.538 48.5079 21.1025 48.6224 20.6895 48.7951C19.2421 49.3996 17.6877 49.7018 16.1352 49.7018ZM8.65232 45.9942L10.4846 46.2063C11.1623 46.2851 11.8268 46.456 12.4557 46.7188C14.8061 47.695 17.4849 47.6931 19.8184 46.7169C20.4266 46.4635 21.0668 46.2945 21.7238 46.2194L23.6612 45.996V44.1488C23.6612 41.5976 21.5849 39.5213 19.0337 39.5213H13.2798C10.7286 39.5213 8.65232 41.5976 8.65232 44.1488V45.9942V45.9942Z" fill="white"/>
<path d="M16.1558 36.0596C13.4243 36.0596 11.211 33.9214 11.1153 31.1918L10.9876 27.5255C10.9388 26.1457 11.4419 24.8391 12.3993 23.846C13.3568 22.8529 14.6464 22.3066 16.0262 22.3066H16.2816C17.6614 22.3066 18.9511 22.8529 19.9085 23.846C20.8678 24.8391 21.369 26.1457 21.3221 27.5255L21.1944 31.1918C21.1005 33.9214 18.8872 36.0596 16.1558 36.0596ZM16.0281 24.5613C15.2641 24.5613 14.5507 24.8635 14.0213 25.4135C13.49 25.9636 13.2141 26.6863 13.2404 27.4485L13.368 31.1149C13.4206 32.6261 14.6464 33.8088 16.1577 33.8088C17.6689 33.8088 18.8947 32.6261 18.9473 31.1149L19.075 27.4504C19.1012 26.6863 18.8234 25.9636 18.294 25.4154C17.7627 24.8654 17.0512 24.5631 16.2872 24.5631H16.0281V24.5613Z" fill="white"/>
<path d="M46.2959 57.6121C45.3384 57.6121 44.3829 57.4262 43.4912 57.0564C43.2716 56.9644 43.0482 56.9062 42.821 56.88L41.7153 56.7523C40.8424 56.6509 40.1853 55.9132 40.1853 55.0346V53.9195C40.1853 51.4621 42.1846 49.4609 44.6438 49.4609H47.976C50.4334 49.4609 52.4346 51.4602 52.4346 53.9195V55.0346C52.4346 55.9132 51.7775 56.6509 50.9046 56.7523L49.7388 56.8875C49.5248 56.9119 49.3164 56.9663 49.1174 57.0489C48.2201 57.4262 47.257 57.6121 46.2959 57.6121ZM42.438 54.569L43.0782 54.6422C43.5137 54.6929 43.9417 54.8037 44.3472 54.9726C45.5919 55.4908 47.0111 55.4889 48.2464 54.9726C48.6387 54.8074 49.0536 54.7004 49.4779 54.6516L50.18 54.5709V53.9232C50.18 52.7068 49.1906 51.7174 47.9741 51.7174H44.642C43.4255 51.7174 42.4362 52.7068 42.4362 53.9232V54.569H42.438Z" fill="white"/>
<path d="M46.3091 48.9222C44.4712 48.9222 42.9807 47.4823 42.9168 45.6463L42.8436 43.5231C42.8117 42.5939 43.1496 41.7153 43.7954 41.047C44.4412 40.3787 45.3085 40.0107 46.2377 40.0107H46.3861C47.3153 40.0107 48.1826 40.3787 48.8284 41.047C49.4742 41.7153 49.8121 42.5939 49.7802 43.5231L49.707 45.6463C49.6375 47.4842 48.1469 48.9222 46.3091 48.9222ZM46.234 42.2635C45.9224 42.2635 45.6295 42.3874 45.4136 42.6127C45.1959 42.8379 45.0832 43.1327 45.0945 43.4462L45.1677 45.5694C45.1884 46.187 45.6896 46.6713 46.3091 46.6713C46.9286 46.6713 47.4279 46.187 47.4505 45.5694L47.5237 43.4462C47.535 43.1345 47.4204 42.8379 47.2045 42.6127C46.9868 42.3874 46.6958 42.2635 46.3823 42.2635H46.234Z" fill="white"/>
<path d="M17.6691 7.35694H17.6428C16.8656 7.35694 16.2349 6.72617 16.2349 5.94898C16.2349 5.17178 16.8656 4.54102 17.6428 4.54102H17.6691C18.4463 4.54102 19.0771 5.17178 19.0771 5.94898C19.0771 6.72617 18.4463 7.35694 17.6691 7.35694Z" fill="white"/>
<path d="M7.10002 7.35694H7.07373C6.29654 7.35694 5.66577 6.72617 5.66577 5.94898C5.66577 5.17178 6.29654 4.54102 7.07373 4.54102H7.10002C7.87721 4.54102 8.50798 5.17178 8.50798 5.94898C8.50798 6.72617 7.87909 7.35694 7.10002 7.35694Z" fill="white"/>
<path d="M12.3844 7.35694H12.3582C11.581 7.35694 10.9502 6.72617 10.9502 5.94898C10.9502 5.17178 11.581 4.54102 12.3582 4.54102H12.3844C13.1616 4.54102 13.7924 5.17178 13.7924 5.94898C13.7924 6.72617 13.1616 7.35694 12.3844 7.35694Z" fill="white"/>
<path d="M56.3411 16.5262H56.3148C55.6935 16.5262 55.1885 16.0212 55.1885 15.3998C55.1885 14.7784 55.6935 14.2734 56.3148 14.2734H56.3411C56.9625 14.2734 57.4675 14.7784 57.4675 15.3998C57.4675 16.0212 56.9625 16.5262 56.3411 16.5262Z" fill="white"/>
<path d="M25.9383 16.5262H25.912C25.2906 16.5262 24.7856 16.0212 24.7856 15.3998C24.7856 14.7784 25.2906 14.2734 25.912 14.2734H25.9383C26.5597 14.2734 27.0647 14.7784 27.0647 15.3998C27.0647 16.0212 26.5597 16.5262 25.9383 16.5262Z" fill="white"/>
<path d="M56.3411 41.869H56.3148C55.6935 41.869 55.1885 41.364 55.1885 40.7426C55.1885 40.1212 55.6935 39.6162 56.3148 39.6162H56.3411C56.9625 39.6162 57.4675 40.1212 57.4675 40.7426C57.4675 41.364 56.9625 41.869 56.3411 41.869Z" fill="white"/>
</svg>
