<svg width="51" height="46" viewBox="0 0 51 46" fill="none" xmlns="http://www.w3.org/2000/svg">
<path d="M7.27 7.27V1H11.45V7.27H17.72V11.45H11.45V17.72H7.27V11.45H1V7.27H7.27ZM13.54 19.811V13.541H19.81V7.27H34.442L38.267 11.45H44.893C46.0006 11.4534 47.0618 11.8949 47.8449 12.6781C48.6281 13.4612 49.0696 14.5224 49.073 15.63V40.712C49.0696 41.8196 48.6281 42.8808 47.8449 43.6639C47.0618 44.4471 46.0006 44.8886 44.893 44.892H11.451C10.3434 44.8886 9.28224 44.4471 8.49908 43.6639C7.71592 42.8808 7.27443 41.8196 7.271 40.712V19.812L13.54 19.811ZM28.172 38.622C30.2391 38.622 32.2597 38.009 33.9784 36.8606C35.697 35.7122 37.0366 34.0799 37.8276 32.1702C38.6185 30.2605 38.8255 28.1591 38.4221 26.1317C38.0188 24.1044 37.0233 22.2422 35.5616 20.7807C34.0999 19.3191 32.2376 18.3238 30.2103 17.9207C28.1829 17.5175 26.0815 17.7247 24.1719 18.5158C22.2622 19.307 20.6301 20.6467 19.4818 22.3655C18.3336 24.0843 17.7208 26.1049 17.721 28.172C17.7221 30.9434 18.8235 33.6009 20.7833 35.5604C22.743 37.52 25.4006 38.6212 28.172 38.622V38.622ZM21.483 28.172C21.483 29.4948 21.8752 30.7878 22.6101 31.8877C23.345 32.9875 24.3895 33.8447 25.6116 34.3509C26.8337 34.8571 28.1784 34.9895 29.4758 34.7315C30.7731 34.4734 31.9648 33.8365 32.9001 32.9011C33.8355 31.9658 34.4724 30.7741 34.7305 29.4768C34.9885 28.1794 34.8561 26.8347 34.3499 25.6126C33.8437 24.3905 32.9865 23.346 31.8867 22.6111C30.7868 21.8762 29.4938 21.484 28.171 21.484C27.2925 21.4831 26.4224 21.6554 25.6105 21.9912C24.7987 22.327 24.061 22.8196 23.4398 23.4408C22.8186 24.062 22.326 24.7997 21.9902 25.6115C21.6544 26.4234 21.4821 27.2935 21.483 28.172V28.172Z" stroke="white" stroke-width="2"/>
</svg>
