<svg width="14" height="14" viewBox="0 0 14 14" fill="none" xmlns="http://www.w3.org/2000/svg">
<path d="M8.156 8.15577C7.86015 8.47323 7.45031 8.66017 7.01663 8.67545C6.58295 8.69074 6.16096 8.53312 5.8435 8.23727C5.52604 7.94142 5.3391 7.53158 5.32382 7.0979C5.30853 6.66422 5.46615 6.24223 5.762 5.92477C5.788 5.8961 5.81533 5.86877 5.844 5.84277M10.24 10.2358C9.30804 10.9477 8.17263 11.3427 7 11.3628C3.182 11.3628 1 6.99877 1 6.99877C1.67855 5.73439 2.61958 4.6297 3.76 3.75877L10.24 10.2358ZM5.855 2.76577C6.23033 2.67816 6.61458 2.63453 7 2.63577C10.818 2.63577 13 6.99977 13 6.99977C12.669 7.61923 12.2742 8.2024 11.822 8.73977L5.855 2.76577Z" stroke="#0353EF" stroke-linecap="round" stroke-linejoin="round"/>
<path d="M1 1L13 13" stroke="#0353EF" stroke-linecap="round" stroke-linejoin="round"/>
</svg>
