<svg width="19" height="19" viewBox="0 0 19 19" fill="none" xmlns="http://www.w3.org/2000/svg">
<path d="M8.40337 2.74512H2.64519C2.20886 2.74512 1.7904 2.91845 1.48187 3.22698C1.17333 3.53552 1 3.95398 1 4.39031V15.9067C1 16.343 1.17333 16.7615 1.48187 17.07C1.7904 17.3785 2.20886 17.5518 2.64519 17.5518H14.1615C14.5979 17.5518 15.0163 17.3785 15.3249 17.07C15.6334 16.7615 15.8067 16.343 15.8067 15.9067V10.1485" stroke="#000B21" stroke-width="1.62069" stroke-linecap="round" stroke-linejoin="round"/>
<path d="M14.5728 1.5111C14.9001 1.18385 15.3439 1 15.8067 1C16.2695 1 16.7133 1.18385 17.0406 1.5111C17.3678 1.83835 17.5517 2.28219 17.5517 2.74499C17.5517 3.20779 17.3678 3.65164 17.0406 3.97888L9.22593 11.7936L5.93555 12.6161L6.75814 9.32576L14.5728 1.5111Z" stroke="#000B21" stroke-width="1.62069" stroke-linecap="round" stroke-linejoin="round"/>
</svg>
