<svg width="20" height="21" viewBox="0 0 20 21" fill="none" xmlns="http://www.w3.org/2000/svg">
<path d="M9.97222 0.000336924C9.79445 0.00572145 9.62222 0.0649513 9.48333 0.172642L1.58889 6.20331C0.588889 6.96792 0 8.13636 0 9.3748V19.6539C0 20.3862 0.633333 21 1.38889 21H6.94444C7.7 21 8.33333 20.3862 8.33333 19.6539V14.2693C8.33333 14.1078 8.44444 14.0001 8.61111 14.0001H11.3889C11.5556 14.0001 11.6667 14.1078 11.6667 14.2693V19.6539C11.6667 20.3862 12.3 21 13.0556 21H18.6111C19.3667 21 20 20.3862 20 19.6539V9.3748C20 8.13636 19.4111 6.96792 18.4111 6.20331L10.5167 0.172642C10.3611 0.0541822 10.1667 -0.00504761 9.97222 0.000336924ZM10 1.83646L17.3833 7.47406C17.9833 7.93175 18.3333 8.63174 18.3333 9.3748V19.3846H13.3333V14.2693C13.3333 13.2409 12.45 12.3848 11.3889 12.3848H8.61111C7.55 12.3848 6.66667 13.2409 6.66667 14.2693V19.3846H1.66667V9.3748C1.66667 8.63174 2.01667 7.93175 2.61667 7.47406L10 1.83646Z" fill="white"/>
</svg>
