<svg width="19" height="18" viewBox="0 0 19 18" fill="none" xmlns="http://www.w3.org/2000/svg">
<path d="M0 2.04942C0 1.45537 0.21394 0.965298 0.641896 0.579209C1.06978 0.193045 1.6261 0 2.31078 0C2.98323 0 3.52731 0.190091 3.94303 0.570273C4.37099 0.962344 4.58493 1.47317 4.58493 2.10289C4.58493 2.67316 4.37707 3.14839 3.96135 3.52857C3.53339 3.92064 2.97099 4.11664 2.27407 4.11664H2.25576C1.58331 4.11664 1.03922 3.92064 0.623504 3.52857C0.207784 3.1365 0 2.64347 0 2.04942ZM0.238412 17.6429V5.7384H4.30981V17.6429H0.238412ZM6.56564 17.6429H10.637V10.9956C10.637 10.5797 10.686 10.259 10.7838 10.0332C10.9549 9.62928 11.2148 9.28772 11.5632 9.00856C11.9117 8.72934 12.3488 8.58976 12.8746 8.58976C14.2439 8.58976 14.9286 9.48675 14.9286 11.2807V17.6429H19V10.8174C19 9.059 18.572 7.72541 17.7162 6.81654C16.8604 5.90766 15.7294 5.45326 14.3233 5.45326C12.7461 5.45326 11.5173 6.11267 10.637 7.43142V7.46709H10.6187L10.637 7.43142V5.7384H6.56564C6.59011 6.11858 6.60235 7.3007 6.60235 9.28477C6.60235 11.2688 6.59011 14.0548 6.56564 17.6429Z" fill="#0077B5"/>
</svg>
