<svg width="16" height="21" viewBox="0 0 16 21" fill="none" xmlns="http://www.w3.org/2000/svg">
<path d="M7.82793 5.45605C7.29392 5.45605 6.7719 5.61441 6.32789 5.91109C5.88388 6.20777 5.53781 6.62945 5.33346 7.12281C5.1291 7.61617 5.07563 8.15905 5.17981 8.6828C5.28399 9.20655 5.54114 9.68764 5.91874 10.0652C6.29634 10.4428 6.77744 10.7 7.30119 10.8042C7.82494 10.9084 8.36782 10.8549 8.86118 10.6505C9.35454 10.4462 9.77622 10.1001 10.0729 9.65609C10.3696 9.21208 10.5279 8.69006 10.5279 8.15605C10.5279 7.43997 10.2435 6.75321 9.73712 6.24687C9.23077 5.74052 8.54402 5.45605 7.82793 5.45605ZM7.82793 9.50206C7.56112 9.50206 7.30031 9.42294 7.07847 9.27471C6.85662 9.12648 6.68372 8.91579 6.58162 8.6693C6.47951 8.4228 6.4528 8.15156 6.50485 7.88988C6.5569 7.6282 6.68538 7.38783 6.87404 7.19917C7.0627 7.01051 7.30307 6.88203 7.56475 6.82998C7.82643 6.77792 8.09767 6.80464 8.34417 6.90674C8.59067 7.00884 8.80135 7.18175 8.94958 7.40359C9.09781 7.62543 9.17693 7.88625 9.17693 8.15306C9.17693 8.51083 9.0348 8.85396 8.78182 9.10694C8.52883 9.35993 8.18571 9.50206 7.82793 9.50206Z" fill="#0353EF"/>
<path d="M13.012 2.9656C11.7305 1.68399 10.0197 0.92256 8.20983 0.828289C6.39994 0.734018 4.61929 1.31359 3.21163 2.45513C1.80398 3.59667 0.869128 5.21922 0.587559 7.00957C0.30599 8.79991 0.697665 10.6311 1.68697 12.1496L6.78697 19.9726C6.90048 20.1465 7.05557 20.2894 7.23821 20.3883C7.42085 20.4872 7.62527 20.539 7.83297 20.539C8.04067 20.539 8.24509 20.4872 8.42773 20.3883C8.61037 20.2894 8.76547 20.1465 8.87897 19.9726L13.979 12.1496C14.8967 10.741 15.3023 9.05984 15.1279 7.38779C14.9535 5.71573 14.2096 4.15443 13.021 2.9656H13.012ZM12.841 11.4136L7.82997 19.1076L2.81697 11.4136C2.22904 10.511 1.89576 9.46646 1.85233 8.39018C1.80891 7.31389 2.05695 6.24586 2.57026 5.29887C3.08357 4.35188 3.8431 3.56109 4.76862 3.01002C5.69414 2.45895 6.75131 2.16806 7.82847 2.16806C8.90563 2.16806 9.9628 2.45895 10.8883 3.01002C11.8138 3.56109 12.5734 4.35188 13.0867 5.29887C13.6 6.24586 13.848 7.31389 13.8046 8.39018C13.7612 9.46646 13.4279 10.511 12.84 11.4136H12.841Z" fill="#0353EF"/>
</svg>
