<svg width="13" height="17" viewBox="0 0 13 17" fill="none" xmlns="http://www.w3.org/2000/svg">
<path fill-rule="evenodd" clip-rule="evenodd" d="M10.318 8.182H2.682C2.53856 8.182 2.39653 8.21029 2.26403 8.26524C2.13153 8.32019 2.01117 8.40073 1.90984 8.50225C1.8085 8.60377 1.72818 8.72428 1.67347 8.85688C1.61876 8.98948 1.59074 9.13156 1.591 9.275V14.73C1.591 14.8733 1.61922 15.0151 1.67405 15.1475C1.72888 15.2799 1.80924 15.4001 1.91055 15.5015C2.01186 15.6028 2.13213 15.6831 2.26449 15.738C2.39686 15.7928 2.53873 15.821 2.682 15.821H10.318C10.4613 15.821 10.6031 15.7928 10.7355 15.738C10.8679 15.6831 10.9881 15.6028 11.0895 15.5015C11.1908 15.4001 11.2711 15.2799 11.326 15.1475C11.3808 15.0151 11.409 14.8733 11.409 14.73V9.275C11.4093 9.13156 11.3812 8.98948 11.3265 8.85688C11.2718 8.72428 11.1915 8.60377 11.0902 8.50225C10.9888 8.40073 10.8685 8.32019 10.736 8.26524C10.6035 8.21029 10.4614 8.182 10.318 8.182ZM2.682 7.091C2.39529 7.091 2.11139 7.14751 1.84652 7.25729C1.58166 7.36707 1.34103 7.52797 1.13839 7.7308C0.935743 7.93363 0.77506 8.17441 0.665522 8.43937C0.555983 8.70433 0.499738 8.98829 0.500001 9.275V14.73C0.500001 15.3087 0.729889 15.8637 1.13909 16.2729C1.34171 16.4755 1.58225 16.6362 1.84699 16.7459C2.11172 16.8556 2.39546 16.912 2.682 16.912H10.318C10.8967 16.912 11.4517 16.6821 11.8609 16.2729C12.2701 15.8637 12.5 15.3087 12.5 14.73V9.275C12.5 8.6963 12.2701 8.1413 11.8609 7.73209C11.4517 7.32289 10.8967 7.093 10.318 7.093L2.682 7.091ZM2.682 3.818C2.682 2.8054 3.08425 1.83428 3.80027 1.11827C4.51628 0.402252 5.4874 0 6.5 0C7.5126 0 8.48372 0.402252 9.19973 1.11827C9.91575 1.83428 10.318 2.8054 10.318 3.818V7.091H9.227V3.818C9.227 3.09462 8.93964 2.40087 8.42813 1.88937C7.91663 1.37786 7.22288 1.0905 6.4995 1.0905C5.77612 1.0905 5.08237 1.37786 4.57087 1.88937C4.05936 2.40087 3.772 3.09462 3.772 3.818V7.091H2.682V3.818Z" fill="#0353EF"/>
</svg>
