<svg width="22" height="22" viewBox="0 0 22 22" fill="none" xmlns="http://www.w3.org/2000/svg">
<circle cx="11" cy="11" r="11" fill="#000B21"/>
<path d="M9.336 11.5328C9.336 10.0928 8.328 8.9312 6.888 8.9312C6.216 8.9312 5.64 9.2288 5.2752 9.632H5.256V9.0752H3.576V16.496H5.2752V13.5296C5.6784 13.9232 6.2256 14.144 6.888 14.144C8.328 14.144 9.336 12.9728 9.336 11.5328ZM7.5312 11.5328C7.5312 12.2144 7.0224 12.6944 6.3792 12.6944C5.7456 12.6944 5.2368 12.2144 5.2368 11.5328C5.2368 10.8608 5.7168 10.3808 6.3792 10.3808C7.0704 10.3808 7.5312 10.8608 7.5312 11.5328ZM15.8891 11.5328C15.8891 10.0928 14.8811 8.9312 13.4411 8.9312C12.7691 8.9312 12.1931 9.2288 11.8283 9.632H11.8091V9.0752H10.1291V16.496H11.8283V13.5296C12.2315 13.9232 12.7787 14.144 13.4411 14.144C14.8811 14.144 15.8891 12.9728 15.8891 11.5328ZM14.0843 11.5328C14.0843 12.2144 13.5755 12.6944 12.9323 12.6944C12.2987 12.6944 11.7899 12.2144 11.7899 11.5328C11.7899 10.8608 12.2699 10.3808 12.9323 10.3808C13.6235 10.3808 14.0843 10.8608 14.0843 11.5328ZM16.6822 14H18.3814V5.744H16.6822V14Z" fill="white"/>
</svg>
