<svg width="19" height="16" viewBox="0 0 19 16" fill="none" xmlns="http://www.w3.org/2000/svg">
<path d="M12.25 14.5V13C12.25 12.2044 11.9339 11.4413 11.3713 10.8787C10.8087 10.3161 10.0456 10 9.25 10H4C3.20435 10 2.44129 10.3161 1.87868 10.8787C1.31607 11.4413 1 12.2044 1 13V14.5" stroke="#0353EF" stroke-width="1.25" stroke-linecap="round" stroke-linejoin="round"/>
<path d="M6.625 7C8.28185 7 9.625 5.65685 9.625 4C9.625 2.34315 8.28185 1 6.625 1C4.96815 1 3.625 2.34315 3.625 4C3.625 5.65685 4.96815 7 6.625 7Z" stroke="#0353EF" stroke-width="1.25" stroke-linecap="round" stroke-linejoin="round"/>
<path d="M15.25 4.75V9.25" stroke="#0353EF" stroke-width="1.25" stroke-linecap="round" stroke-linejoin="round"/>
<path d="M17.5 7H13" stroke="#0353EF" stroke-width="1.25" stroke-linecap="round" stroke-linejoin="round"/>
</svg>
