<?xml version="1.0" standalone="no"?>
<!DOCTYPE svg PUBLIC "-//W3C//DTD SVG 20010904//EN"
 "http://www.w3.org/TR/2001/REC-SVG-20010904/DTD/svg10.dtd">
<svg version="1.0" xmlns="http://www.w3.org/2000/svg"
 width="512.000000pt" height="512.000000pt" viewBox="0 0 512.000000 512.000000"
 preserveAspectRatio="xMidYMid meet">

<g transform="translate(0.000000,512.000000) scale(0.100000,-0.100000)"
fill="#000000" stroke="none">
<path d="M560 3824 c-78 -34 -130 -111 -130 -194 0 -88 38 -152 115 -193 l40
-22 1975 0 1975 0 45 25 c67 38 103 96 108 174 5 71 -14 120 -65 168 -65 62
88 58 -2065 58 -1731 -1 -1967 -3 -1998 -16z"/>
<path d="M539 2747 c-68 -36 -103 -93 -107 -175 -4 -83 21 -138 87 -186 l43
-31 1357 0 1358 0 39 27 c21 15 50 44 64 65 21 31 25 48 25 114 0 71 -3 81
-31 120 -18 24 -51 54 -75 66 l-42 23 -1337 0 -1337 0 -44 -23z"/>
<path d="M590 1701 c-104 -32 -160 -106 -160 -211 0 -84 53 -161 132 -194 33
-14 125 -16 720 -16 643 0 685 2 723 19 77 36 125 111 125 196 0 83 -39 148
-115 188 -40 22 -45 22 -720 24 -374 1 -691 -2 -705 -6z"/>
</g>
</svg>
